<svg xmlns="http://www.w3.org/2000/svg" xmlns:xlink="http://www.w3.org/1999/xlink" width="504.913" height="546.692" viewBox="0 0 504.913 546.692">
  <defs>
    <clipPath id="clip-path">
      <rect id="Rectangle_22" data-name="Rectangle 22" width="504.913" height="451.771" fill="none"/>
    </clipPath>
    <clipPath id="clip-path-3">
      <rect id="Rectangle_6" data-name="Rectangle 6" width="70.448" height="93.531" fill="none"/>
    </clipPath>
    <clipPath id="clip-path-4">
      <rect id="Rectangle_5" data-name="Rectangle 5" width="2.975" height="12.127" fill="none"/>
    </clipPath>
    <clipPath id="clip-path-5">
      <rect id="Rectangle_8" data-name="Rectangle 8" width="105.969" height="140.694" fill="none"/>
    </clipPath>
    <clipPath id="clip-path-6">
      <rect id="Rectangle_7" data-name="Rectangle 7" width="4.477" height="18.242" fill="none"/>
    </clipPath>
    <clipPath id="clip-path-7">
      <rect id="Rectangle_9" data-name="Rectangle 9" width="294.65" height="447.825" fill="none"/>
    </clipPath>
    <clipPath id="clip-path-8">
      <rect id="Rectangle_10" data-name="Rectangle 10" width="189.492" height="103.732" fill="none"/>
    </clipPath>
    <clipPath id="clip-path-9">
      <rect id="Rectangle_11" data-name="Rectangle 11" width="48.449" height="83.259" fill="none"/>
    </clipPath>
    <clipPath id="clip-path-10">
      <rect id="Rectangle_12" data-name="Rectangle 12" width="206.532" height="113.502" fill="none"/>
    </clipPath>
    <clipPath id="clip-path-11">
      <rect id="Rectangle_13" data-name="Rectangle 13" width="49.674" height="24.939" fill="none"/>
    </clipPath>
    <clipPath id="clip-path-12">
      <rect id="Rectangle_14" data-name="Rectangle 14" width="34.296" height="17.217" fill="none"/>
    </clipPath>
    <clipPath id="clip-path-14">
      <rect id="Rectangle_16" data-name="Rectangle 16" width="34.295" height="17.217" fill="none"/>
    </clipPath>
    <clipPath id="clip-path-16">
      <rect id="Rectangle_18" data-name="Rectangle 18" width="120.25" height="65.805" fill="none"/>
    </clipPath>
    <clipPath id="clip-path-17">
      <rect id="Rectangle_19" data-name="Rectangle 19" width="92.195" height="50.066" fill="none"/>
    </clipPath>
    <clipPath id="clip-path-18">
      <rect id="Rectangle_20" data-name="Rectangle 20" width="80.282" height="121.541" fill="none"/>
    </clipPath>
  </defs>
  <g id="Group_57" data-name="Group 57" transform="translate(-1470.795 -473.523)">
    <rect id="Rectangle_26" data-name="Rectangle 26" width="38" height="571" rx="19" transform="translate(1875.172 473.523) rotate(21)" fill="#353535"/>
    <rect id="Rectangle_25" data-name="Rectangle 25" width="38" height="455" rx="19" transform="translate(1764.172 498.523) rotate(21)"/>
    <g id="Group_55" data-name="Group 55" transform="translate(1470.795 514)">
      <g id="Group_54" data-name="Group 54" clip-path="url(#clip-path)">
        <g id="Group_53" data-name="Group 53">
          <g id="Group_52" data-name="Group 52" clip-path="url(#clip-path)">
            <path id="Path_1" data-name="Path 1" d="M297.6,191.875c-11.365-6.561-20.578-22.451-20.578-35.491,0-4.838,1.283-8.581,3.459-11.062-6.235.452-10.454,5.672-10.454,14.485,0,13.04,9.211,28.931,20.576,35.492,7.141,4.122,13.409,3.555,17.093-.656a17.841,17.841,0,0,1-10.1-2.768" transform="translate(130.097 70.016)" fill="#72b5e8"/>
            <path id="Path_2" data-name="Path 2" d="M322.444,194.163a40.47,40.47,0,0,0-.354-4.988l8.319-1.054a75.35,75.35,0,0,0-3.77-12.591l-9.478-2.867a66.614,66.614,0,0,0-5.9-10.174l2.272-9.565a76,76,0,0,0-9.077-9.565l-5.1,6.6a41.29,41.29,0,0,0-4.17-2.811,32.037,32.037,0,0,0-4.17-2l-5.1-12.49a25.293,25.293,0,0,0-9.077-.916l2.272,12.188a13.007,13.007,0,0,0-5.9,3.362l-9.476-8.077a24.73,24.73,0,0,0-3.771,8.239l8.317,10.657a31.4,31.4,0,0,0-.351,4.582,40.459,40.459,0,0,0,.351,4.988l-8.317,1.052a75.139,75.139,0,0,0,3.771,12.592l9.476,2.867a66.6,66.6,0,0,0,5.9,10.173l-2.272,9.565a76.012,76.012,0,0,0,9.077,9.567l5.1-6.6a40.88,40.88,0,0,0,4.17,2.811,32.158,32.158,0,0,0,4.17,2l5.1,12.49a25.259,25.259,0,0,0,9.077.914l-2.272-12.186a13.02,13.02,0,0,0,5.9-3.362l9.478,8.077a24.8,24.8,0,0,0,3.77-8.24l-8.319-10.656a31.4,31.4,0,0,0,.354-4.582m-27,7.726c-11.364-6.561-20.578-22.451-20.578-35.491s9.214-18.294,20.578-11.733,20.578,22.451,20.578,35.492-9.214,18.294-20.578,11.731" transform="translate(125.249 63.427)" fill="#a8cff0"/>
            <path id="Path_3" data-name="Path 3" d="M290.548,141.726l-5.1-12.49-7.971,4.579,5.1,12.49Z" transform="translate(133.688 62.266)" fill="#72b5e8"/>
            <path id="Path_4" data-name="Path 4" d="M280.918,142.244a32.035,32.035,0,0,1,4.17,2,41.288,41.288,0,0,1,4.17,2.811l5.1-6.6v0s-.861-.541-1.3-.793a32.125,32.125,0,0,0-4.168-2Z" transform="translate(135.346 66.327)" fill="#d1ebff"/>
            <path id="Path_5" data-name="Path 5" d="M288.4,129.564a25.26,25.26,0,0,0-9.078-.916l-7.971,4.579a25.3,25.3,0,0,1,9.077.916Z" transform="translate(130.736 61.938)" fill="#d1ebff"/>
            <path id="Path_6" data-name="Path 6" d="M307.037,146.026a75.991,75.991,0,0,0-9.077-9.565l-7.971,4.579a76,76,0,0,1,9.077,9.565Z" transform="translate(139.716 65.747)" fill="#d1ebff"/>
            <path id="Path_7" data-name="Path 7" d="M296.854,147.495l-2.272,9.565,7.972-4.579,2.27-9.565Z" transform="translate(141.929 68.857)" fill="#72b5e8"/>
            <path id="Path_8" data-name="Path 8" d="M294.582,153.95a66.611,66.611,0,0,1,5.9,10.174l7.971-4.579a66.731,66.731,0,0,0-5.9-10.174Z" transform="translate(141.929 71.967)" fill="#72b5e8"/>
            <path id="Path_9" data-name="Path 9" d="M298.564,160.816l9.478,2.867,7.971-4.579-9.478-2.867Z" transform="translate(143.848 75.275)" fill="#d1ebff"/>
            <path id="Path_10" data-name="Path 10" d="M304.959,162.751a75.21,75.21,0,0,1,3.77,12.591l7.972-4.579a75.379,75.379,0,0,0-3.77-12.591Z" transform="translate(146.929 76.207)" fill="#72b5e8"/>
            <path id="Path_11" data-name="Path 11" d="M277.881,142.953l-.659-3.544-6.745-5.748-7.971,4.579,9.478,8.079a13.015,13.015,0,0,1,5.9-3.365" transform="translate(126.475 64.398)" fill="#72b5e8"/>
            <path id="Path_12" data-name="Path 12" d="M308.729,185.608a24.779,24.779,0,0,1-3.77,8.24l7.972-4.579a24.793,24.793,0,0,0,3.77-8.24Z" transform="translate(146.929 87.22)" fill="#72b5e8"/>
            <path id="Path_13" data-name="Path 13" d="M309.862,175.8a31.418,31.418,0,0,0,.351-4.582c0-.48-.031-.969-.058-1.455l-8.265,1.046a40.45,40.45,0,0,1,.353,4.988,31.411,31.411,0,0,1-.353,4.582Z" transform="translate(145.45 81.792)" fill="#72b5e8"/>
            <path id="Path_14" data-name="Path 14" d="M301.89,178.417l8.317,10.656,7.972-4.577-8.317-10.657Z" transform="translate(145.45 83.755)" fill="#d1ebff"/>
            <path id="Path_15" data-name="Path 15" d="M300.482,184.229a13.023,13.023,0,0,1-5.9,3.364l2.272,12.185,7.971-4.579-1.611-8.642Z" transform="translate(141.93 88.761)" fill="#72b5e8"/>
            <path id="Path_16" data-name="Path 16" d="M267.979,153.5l-8.018,4.706,8.317-1.052c-.153-1.231-.247-2.449-.3-3.654" transform="translate(125.249 73.954)" fill="#d1ebff"/>
            <path id="Path_17" data-name="Path 17" d="M282.576,182.426l-5.1,6.6,8.03-4.571c-.988-.633-1.968-1.3-2.93-2.029" transform="translate(133.688 87.893)" fill="#72b5e8"/>
            <g id="Group_9" data-name="Group 9" transform="translate(385.611 195.034)" style="mix-blend-mode: color-dodge;isolation: isolate">
              <g id="Group_8" data-name="Group 8">
                <g id="Group_7" data-name="Group 7" clip-path="url(#clip-path-3)">
                  <path id="Path_18" data-name="Path 18" d="M272.595,140.344l-.024-.123c-.378.145-.742.32-1.1.5.372-.133.739-.274,1.128-.375" transform="translate(-254.819 -127.476)" fill="#fff"/>
                  <path id="Path_19" data-name="Path 19" d="M267.137,156.056l-6.9.874c.025.135.064.268.09.4l6.855-.867c-.016-.136-.024-.271-.042-.409" transform="translate(-260.232 -119.847)" fill="#fff"/>
                  <path id="Path_20" data-name="Path 20" d="M298.591,149.648l-2.27,9.565a66.542,66.542,0,0,1,5.9,10.174l9.479,2.867a75.562,75.562,0,0,1,3.678,12.189l.938-.156a75.063,75.063,0,0,0-3.77-12.591l-9.476-2.869a66.8,66.8,0,0,0-5.9-10.173l2.272-9.564a75.911,75.911,0,0,0-9.077-9.566l-.311,1.051a76.547,76.547,0,0,1,8.541,9.072" transform="translate(-245.866 -127.811)" fill="#fff"/>
                  <path id="Path_21" data-name="Path 21" d="M290.9,194.5c-11.364-6.563-20.578-22.452-20.578-35.492,0-5.761,1.808-9.981,4.8-12.349-3.454,2.224-5.579,6.661-5.579,12.908,0,13.04,9.214,28.929,20.578,35.492,5.738,3.31,10.922,3.605,14.654,1.412-.276.086-.566.141-.852.2-3.546,1.288-8.077.68-13.021-2.174" transform="translate(-255.746 -124.375)" fill="#fff"/>
                  <path id="Path_22" data-name="Path 22" d="M295.615,187a12.93,12.93,0,0,0,3.749-2.1l-.35-.3a13.006,13.006,0,0,1-3.4,2.4" transform="translate(-243.185 -106.094)" fill="#fff"/>
                  <path id="Path_23" data-name="Path 23" d="M271.651,145.057c-.345.015,0-.271.35-.553l-9.126-7.778c-.259.359-.492.748-.064.8Z" transform="translate(-259.104 -129.16)" fill="#fff"/>
                  <g id="Group_6" data-name="Group 6" transform="translate(50.597 81.404)" style="mix-blend-mode: color-dodge;isolation: isolate">
                    <g id="Group_5" data-name="Group 5">
                      <g id="Group_4" data-name="Group 4" clip-path="url(#clip-path-4)">
                        <path id="Path_24" data-name="Path 24" d="M294.455,187.02l2.174,11.663c-.25-.013.244-.021.725-.065L295.1,186.556c-.453.175-.914.338-.649.464" transform="translate(-294.378 -186.556)" fill="#fff"/>
                      </g>
                    </g>
                  </g>
                  <path id="Path_25" data-name="Path 25" d="M302.77,175.3a39.347,39.347,0,0,0-.311-4.58l-.828.062a40.506,40.506,0,0,1,.353,4.988,31.374,31.374,0,0,1-.353,4.582l8.319,10.659a25.443,25.443,0,0,1-3.038,7.105l.053.662a24.735,24.735,0,0,0,3.77-8.24l-8.316-10.656a31.615,31.615,0,0,0,.351-4.582" transform="translate(-240.286 -112.782)" fill="#fff"/>
                  <path id="Path_26" data-name="Path 26" d="M279.949,133l5.1,12.49a32.053,32.053,0,0,1,4.171,2,41.26,41.26,0,0,1,4.168,2.811l.16-.791a38.824,38.824,0,0,0-3.58-2.387,31.97,31.97,0,0,0-4.171-2l-5.1-12.49a25.3,25.3,0,0,0-9.077-.916l.1.525a29.714,29.714,0,0,1,8.231.76" transform="translate(-254.745 -131.62)" fill="#fff"/>
                  <path id="Path_27" data-name="Path 27" d="M281.651,182.8l-4.266,5.518c.179.161.354.333.535.493l4.319-5.589c-.194-.144-.393-.276-.588-.422" transform="translate(-251.968 -106.963)" fill="#fff"/>
                </g>
              </g>
            </g>
            <path id="Path_28" data-name="Path 28" d="M300.122,133.465c-17.094-9.87-30.953-33.773-30.953-53.388,0-7.277,1.928-12.906,5.2-16.638-9.381.679-15.728,8.532-15.728,21.787,0,19.616,13.858,43.519,30.952,53.389,10.742,6.2,20.17,5.348,25.714-.987-4.485.327-9.66-.972-15.188-4.164" transform="translate(124.615 30.565)" fill="#72b5e8"/>
            <path id="Path_29" data-name="Path 29" d="M337.5,136.906a61.057,61.057,0,0,0-.528-7.5l12.511-1.583a113.178,113.178,0,0,0-5.671-18.942l-14.256-4.311a100.206,100.206,0,0,0-8.873-15.305l3.416-14.387a114.235,114.235,0,0,0-13.653-14.39l-7.674,9.927a62.048,62.048,0,0,0-6.272-4.229,48.231,48.231,0,0,0-6.272-3.013l-7.674-18.789A38.039,38.039,0,0,0,268.893,43l3.417,18.331a19.583,19.583,0,0,0-8.873,5.06L249.181,54.245a37.232,37.232,0,0,0-5.671,12.392l12.511,16.03a47.382,47.382,0,0,0-.529,6.893,61.054,61.054,0,0,0,.529,7.5L243.51,98.646a113.187,113.187,0,0,0,5.671,18.942l14.256,4.312a100.187,100.187,0,0,0,8.873,15.3l-3.417,14.387a114.35,114.35,0,0,0,13.655,14.39l7.674-9.927a61.961,61.961,0,0,0,6.272,4.229,48.242,48.242,0,0,0,6.272,3.014l7.674,18.788a38,38,0,0,0,13.653,1.377l-3.416-18.331a19.58,19.58,0,0,0,8.873-5.059l14.256,12.151a37.252,37.252,0,0,0,5.671-12.394L336.969,143.8a47.357,47.357,0,0,0,.528-6.892m-40.607,11.623c-17.094-9.87-30.953-33.773-30.953-53.388s13.859-27.518,30.953-17.648,30.953,33.773,30.953,53.388-13.859,27.518-30.953,17.648" transform="translate(117.323 20.652)" fill="#a8cff0"/>
            <path id="Path_30" data-name="Path 30" d="M289.52,58.028l-7.674-18.788-11.991,6.887,7.674,18.788Z" transform="translate(130.016 18.906)" fill="#72b5e8"/>
            <path id="Path_31" data-name="Path 31" d="M275.034,58.807a48.051,48.051,0,0,1,6.272,3.014,61.8,61.8,0,0,1,6.272,4.229l7.674-9.925h0s-1.3-.814-1.953-1.193a48.247,48.247,0,0,0-6.272-3.014Z" transform="translate(132.511 25.015)" fill="#d1ebff"/>
            <path id="Path_32" data-name="Path 32" d="M286.285,39.733a38.005,38.005,0,0,0-13.655-1.377L260.64,45.244a38.005,38.005,0,0,1,13.655,1.377Z" transform="translate(125.576 18.413)" fill="#d1ebff"/>
            <path id="Path_33" data-name="Path 33" d="M314.324,64.5a114.347,114.347,0,0,0-13.656-14.388L288.68,57a114.215,114.215,0,0,1,13.652,14.388Z" transform="translate(139.086 24.142)" fill="#d1ebff"/>
            <path id="Path_34" data-name="Path 34" d="M299,66.706l-3.417,14.387,11.991-6.887L311,59.819Z" transform="translate(142.414 28.821)" fill="#72b5e8"/>
            <path id="Path_35" data-name="Path 35" d="M295.588,76.415a100.077,100.077,0,0,1,8.873,15.305l11.991-6.887a100.2,100.2,0,0,0-8.873-15.306Z" transform="translate(142.414 33.499)" fill="#72b5e8"/>
            <path id="Path_36" data-name="Path 36" d="M301.576,86.744l14.256,4.311,11.991-6.887-14.256-4.311Z" transform="translate(145.299 38.475)" fill="#d1ebff"/>
            <path id="Path_37" data-name="Path 37" d="M311.2,89.653a113.14,113.14,0,0,1,5.671,18.942l11.991-6.887a113.151,113.151,0,0,0-5.671-18.942Z" transform="translate(149.934 39.877)" fill="#72b5e8"/>
            <path id="Path_38" data-name="Path 38" d="M270.466,59.875l-.994-5.332L259.326,45.9l-11.989,6.887,14.256,12.152a19.562,19.562,0,0,1,8.873-5.06" transform="translate(119.167 22.113)" fill="#72b5e8"/>
            <path id="Path_39" data-name="Path 39" d="M316.869,124.036A37.228,37.228,0,0,1,311.2,136.43l11.991-6.887a37.228,37.228,0,0,0,5.671-12.394Z" transform="translate(149.934 56.442)" fill="#72b5e8"/>
            <path id="Path_40" data-name="Path 40" d="M318.572,109.285a47.382,47.382,0,0,0,.527-6.892c0-.722-.047-1.457-.085-2.19l-12.434,1.574a61.075,61.075,0,0,1,.529,7.5,47.338,47.338,0,0,1-.529,6.89Z" transform="translate(147.71 48.278)" fill="#72b5e8"/>
            <path id="Path_41" data-name="Path 41" d="M306.581,113.219l12.511,16.03,11.991-6.887-12.511-16.029Z" transform="translate(147.71 51.231)" fill="#d1ebff"/>
            <path id="Path_42" data-name="Path 42" d="M304.461,121.962a19.58,19.58,0,0,1-8.873,5.059L299,145.352l11.991-6.887-2.423-13Z" transform="translate(142.414 58.761)" fill="#72b5e8"/>
            <path id="Path_43" data-name="Path 43" d="M255.571,75.732l-12.06,7.079,12.511-1.584c-.231-1.849-.372-3.681-.45-5.495" transform="translate(117.323 36.488)" fill="#d1ebff"/>
            <path id="Path_44" data-name="Path 44" d="M277.529,119.251l-7.674,9.927,12.08-6.874c-1.486-.953-2.959-1.962-4.405-3.053" transform="translate(130.016 57.455)" fill="#72b5e8"/>
            <g id="Group_15" data-name="Group 15" transform="translate(361.436 63.46)" style="mix-blend-mode: color-dodge;isolation: isolate">
              <g id="Group_14" data-name="Group 14">
                <g id="Group_13" data-name="Group 13" clip-path="url(#clip-path-5)">
                  <path id="Path_45" data-name="Path 45" d="M262.514,55.949l-.034-.185c-.572.219-1.119.482-1.663.75.559-.2,1.113-.41,1.7-.565" transform="translate(-235.775 -36.593)" fill="#fff"/>
                  <path id="Path_46" data-name="Path 46" d="M254.3,79.585,243.917,80.9c.041.2.1.4.138.6l10.312-1.3c-.027-.207-.037-.41-.062-.615" transform="translate(-243.917 -25.116)" fill="#fff"/>
                  <path id="Path_47" data-name="Path 47" d="M301.619,69.946,298.2,84.333a100.22,100.22,0,0,1,8.875,15.305l14.256,4.312a113.628,113.628,0,0,1,5.533,18.334l1.411-.233a113,113,0,0,0-5.669-18.94L308.351,98.8a100.192,100.192,0,0,0-8.873-15.3l3.416-14.387a114.133,114.133,0,0,0-13.653-14.39l-.47,1.58a115.07,115.07,0,0,1,12.849,13.647" transform="translate(-222.307 -37.096)" fill="#fff"/>
                  <path id="Path_48" data-name="Path 48" d="M290.052,137.412c-17.1-9.87-30.955-33.773-30.955-53.388,0-8.666,2.719-15.017,7.216-18.576-5.2,3.344-8.391,10.02-8.391,19.415,0,19.616,13.859,43.519,30.953,53.389,8.63,4.982,16.429,5.423,22.043,2.125-.413.127-.851.21-1.28.305-5.337,1.937-12.151,1.022-19.586-3.27" transform="translate(-237.169 -31.927)" fill="#fff"/>
                  <path id="Path_49" data-name="Path 49" d="M297.142,126.13a19.429,19.429,0,0,0,5.641-3.159l-.529-.45a19.521,19.521,0,0,1-5.112,3.61" transform="translate(-218.273 -4.43)" fill="#fff"/>
                  <path id="Path_50" data-name="Path 50" d="M261.093,63.038c-.52.022,0-.406.526-.83l-13.727-11.7c-.39.539-.741,1.128-.095,1.2Z" transform="translate(-242.22 -39.126)" fill="#fff"/>
                  <g id="Group_12" data-name="Group 12" transform="translate(76.11 122.451)" style="mix-blend-mode: color-dodge;isolation: isolate">
                    <g id="Group_11" data-name="Group 11">
                      <g id="Group_10" data-name="Group 10" clip-path="url(#clip-path-6)">
                        <path id="Path_51" data-name="Path 51" d="M295.4,126.161l3.269,17.543c-.378-.018.367-.028,1.089-.095l-3.381-18.146c-.683.262-1.377.508-.976.7" transform="translate(-295.28 -125.463)" fill="#fff"/>
                      </g>
                    </g>
                  </g>
                  <path id="Path_52" data-name="Path 52" d="M307.9,108.531a59.193,59.193,0,0,0-.467-6.889l-1.245.095a61.025,61.025,0,0,1,.529,7.5,47.355,47.355,0,0,1-.529,6.892l12.511,16.03a38.235,38.235,0,0,1-4.568,10.691l.082.994a37.224,37.224,0,0,0,5.669-12.394l-12.511-16.03a47.363,47.363,0,0,0,.529-6.892" transform="translate(-213.914 -14.489)" fill="#fff"/>
                  <path id="Path_53" data-name="Path 53" d="M273.577,44.9l7.674,18.788a48.149,48.149,0,0,1,6.272,3.014,61.949,61.949,0,0,1,6.271,4.229l.241-1.191a58.952,58.952,0,0,0-5.386-3.592,48.067,48.067,0,0,0-6.274-3.014L274.7,44.344a38.047,38.047,0,0,0-13.655-1.378l.148.79a44.669,44.669,0,0,1,12.38,1.142" transform="translate(-235.663 -42.826)" fill="#fff"/>
                  <path id="Path_54" data-name="Path 54" d="M276.136,119.81l-6.416,8.3c.271.243.532.5.8.741l6.5-8.4c-.295-.216-.594-.416-.886-.637" transform="translate(-231.485 -5.735)" fill="#fff"/>
                </g>
              </g>
            </g>
            <path id="Path_55" data-name="Path 55" d="M289.727,39.056c.093-1.983,1.455-2.848,3.041-1.932a6.222,6.222,0,0,1,2.7,5.246c-.093,1.983-1.455,2.848-3.042,1.934a6.232,6.232,0,0,1-2.7-5.247" transform="translate(139.587 17.71)" fill="#d40054"/>
            <path id="Path_56" data-name="Path 56" d="M283.739,198.841c.062-1.319.968-1.894,2.023-1.285a4.144,4.144,0,0,1,1.8,3.49c-.064,1.319-.968,1.894-2.023,1.285a4.14,4.14,0,0,1-1.8-3.49" transform="translate(136.703 95.065)" fill="#d40054"/>
            <path id="Path_57" data-name="Path 57" d="M323.09,136.1a.741.741,0,0,1-.64-1.114L326,128.893a.74.74,0,1,1,1.279.747l-2.6,4.451,5.241-1.614a.741.741,0,0,1,.437,1.417l-7.056,2.172a.732.732,0,0,1-.218.033" transform="translate(155.307 61.924)" fill="#d40054"/>
            <path id="Path_58" data-name="Path 58" d="M340.026,178.111l-1-1.1c7.975-7.24,12.191-19.043,12.191-34.133,0-37.549-26.624-83.468-59.348-102.361l.741-1.285c33.132,19.13,60.088,65.624,60.088,103.646,0,15.519-4.383,27.7-12.677,35.23" transform="translate(140.624 18.903)" fill="#d40054"/>
            <path id="Path_59" data-name="Path 59" d="M340.478,116.855h-.013a.739.739,0,0,1-.728-.751q.009-.731.009-1.474a.741.741,0,1,1,1.482,0q0,.754-.009,1.5a.744.744,0,0,1-.741.73" transform="translate(163.685 54.871)" fill="#a8cff0"/>
            <path id="Path_60" data-name="Path 60" d="M315.339,166.28a.741.741,0,0,1-.006-1.482c.966-.007,1.937-.046,2.89-.119a.742.742,0,0,1,.111,1.479c-.985.074-1.992.114-2.989.122Zm-4.407-.17-.064,0q-1.465-.122-2.965-.333a.742.742,0,0,1-.63-.837.756.756,0,0,1,.836-.631q1.458.207,2.884.326a.741.741,0,0,1-.061,1.479m11.717-.507a.741.741,0,0,1-.132-1.47c.948-.173,1.9-.384,2.815-.625a.741.741,0,1,1,.376,1.433c-.954.252-1.938.47-2.927.652a1.011,1.011,0,0,1-.133.01m7.061-2.006a.741.741,0,0,1-.273-1.43c.891-.353,1.775-.745,2.629-1.165a.74.74,0,0,1,.655,1.328c-.889.439-1.811.848-2.737,1.215a.743.743,0,0,1-.274.052m6.507-3.38a.741.741,0,0,1-.407-1.359c.8-.532,1.588-1.1,2.337-1.686a.741.741,0,1,1,.914,1.166c-.781.612-1.6,1.2-2.436,1.756a.737.737,0,0,1-.408.123m5.686-4.648a.742.742,0,0,1-.525-1.265c.676-.677,1.334-1.388,1.956-2.115a.74.74,0,1,1,1.125.963c-.645.756-1.329,1.5-2.033,2.2a.734.734,0,0,1-.523.218m4.674-5.658a.741.741,0,0,1-.612-1.16c.542-.791,1.064-1.612,1.551-2.439a.741.741,0,0,1,1.276.753c-.5.855-1.043,1.7-1.6,2.523a.744.744,0,0,1-.612.323m3.636-6.381a.725.725,0,0,1-.316-.071.741.741,0,0,1-.354-.987q.609-1.291,1.159-2.655a.741.741,0,1,1,1.375.554q-.567,1.4-1.194,2.734a.738.738,0,0,1-.67.425m2.663-6.846a.771.771,0,0,1-.222-.034.741.741,0,0,1-.483-.931q.429-1.367.8-2.792a.741.741,0,0,1,1.433.378q-.385,1.46-.825,2.86a.743.743,0,0,1-.707.519m1.8-7.127a.688.688,0,0,1-.144-.015.739.739,0,0,1-.585-.868q.276-1.409.5-2.869a.741.741,0,0,1,1.464.225q-.229,1.489-.508,2.927a.742.742,0,0,1-.726.6m1.048-7.276a.593.593,0,0,1-.073,0,.743.743,0,0,1-.667-.809q.138-1.434.231-2.907a.72.72,0,0,1,.785-.693.74.74,0,0,1,.693.785q-.093,1.5-.234,2.958a.741.741,0,0,1-.736.67" transform="translate(148.04 56.788)" fill="#a8cff0"/>
            <path id="Path_61" data-name="Path 61" d="M305.494,150.251a.732.732,0,0,1-.159-.018c-.488-.107-.974-.221-1.463-.342a.741.741,0,0,1,.356-1.439q.718.178,1.424.335a.741.741,0,0,1-.159,1.464" transform="translate(146.135 71.514)" fill="#a8cff0"/>
            <path id="Path_62" data-name="Path 62" d="M241.073,71.468a.742.742,0,0,1-.728-.609q-.133-.736-.256-1.47a.741.741,0,1,1,1.461-.243q.122.722.253,1.449a.741.741,0,0,1-.6.861.675.675,0,0,1-.133.012" transform="translate(115.67 33.015)" fill="#a8cff0"/>
            <path id="Path_63" data-name="Path 63" d="M378.218,109.876a.744.744,0,0,1-.688-.462q-.558-1.385-1.147-2.762a.741.741,0,0,1,1.363-.582q.591,1.391,1.159,2.789a.743.743,0,0,1-.41.965.761.761,0,0,1-.277.053m-2.972-6.9a.741.741,0,0,1-.674-.433q-.62-1.358-1.267-2.712a.741.741,0,0,1,1.338-.639q.651,1.363,1.277,2.735a.74.74,0,0,1-.674,1.048m-3.264-6.763a.741.741,0,0,1-.661-.4q-.676-1.334-1.377-2.657a.74.74,0,1,1,1.308-.692q.707,1.334,1.39,2.678a.74.74,0,0,1-.326,1,.732.732,0,0,1-.335.08m-3.539-6.621a.737.737,0,0,1-.645-.378q-.734-1.3-1.485-2.6a.74.74,0,1,1,1.279-.745q.76,1.3,1.5,2.615a.741.741,0,0,1-.283,1.009.73.73,0,0,1-.363.095m-127.755-.683a.741.741,0,0,1-.733-.643q-.2-1.5-.359-3a.741.741,0,1,1,1.473-.159q.16,1.476.356,2.962a.738.738,0,0,1-.736.837m123.951-5.783a.744.744,0,0,1-.631-.353q-.785-1.274-1.587-2.531a.74.74,0,1,1,1.248-.8q.811,1.267,1.6,2.552a.74.74,0,0,1-.631,1.129m-124.7-1.68a.742.742,0,0,1-.739-.691c-.067-1.009-.122-2.017-.162-3.017a.74.74,0,0,1,.713-.769h.028a.741.741,0,0,1,.741.713q.056,1.48.16,2.974a.742.742,0,0,1-.689.79h-.052m120.632-4.623a.738.738,0,0,1-.613-.326q-.838-1.238-1.692-2.461a.741.741,0,0,1,1.215-.849q.86,1.234,1.7,2.482a.739.739,0,0,1-.613,1.154M239.7,73.952h0a.742.742,0,0,1-.738-.744q.007-1.534.059-3.024a.743.743,0,0,1,.741-.714h.028a.74.74,0,0,1,.713.768q-.053,1.467-.059,2.974a.741.741,0,0,1-.741.739M356.253,70.7a.745.745,0,0,1-.6-.3q-.887-1.2-1.793-2.387a.742.742,0,0,1,1.178-.9q.911,1.2,1.808,2.408a.741.741,0,0,1-.6,1.181M240.03,66.46a.48.48,0,0,1-.065,0,.74.74,0,0,1-.674-.8q.131-1.527.313-3.01a.741.741,0,0,1,1.47.181q-.178,1.454-.307,2.956a.74.74,0,0,1-.736.677m111.645-1.694a.74.74,0,0,1-.578-.277q-.936-1.162-1.891-2.3a.741.741,0,1,1,1.137-.951q.965,1.154,1.909,2.326a.742.742,0,0,1-.576,1.206m-4.829-5.726a.738.738,0,0,1-.556-.25q-.987-1.12-1.992-2.215a.741.741,0,1,1,1.092-1q1.016,1.107,2.011,2.236a.741.741,0,0,1-.556,1.231m-105.83-.012a.7.7,0,0,1-.135-.012.742.742,0,0,1-.6-.862q.278-1.511.611-2.97a.741.741,0,1,1,1.445.33q-.327,1.425-.6,2.906a.742.742,0,0,1-.728.608m100.74-5.487a.74.74,0,0,1-.53-.225c-.7-.716-1.4-1.424-2.1-2.122a.741.741,0,1,1,1.042-1.054q1.069,1.058,2.123,2.143a.742.742,0,0,1-.532,1.258m-98.987-1.8a.743.743,0,0,1-.71-.957q.449-1.474.959-2.884a.74.74,0,1,1,1.391.5c-.332.916-.64,1.854-.932,2.811a.739.739,0,0,1-.708.526M336.4,48.291a.739.739,0,0,1-.505-.2q-1.094-1.02-2.2-2.011a.741.741,0,0,1,.987-1.105q1.122,1,2.229,2.032a.741.741,0,0,1-.505,1.283m-90.985-3.558a.742.742,0,0,1-.673-1.051q.642-1.4,1.354-2.728a.741.741,0,0,1,1.305.7q-.691,1.285-1.314,2.644a.739.739,0,0,1-.673.433m85.359-1.4a.739.739,0,0,1-.474-.172q-1.149-.96-2.313-1.886a.741.741,0,1,1,.925-1.159q1.176.936,2.338,1.907a.741.741,0,0,1-.476,1.31m-5.9-4.638a.736.736,0,0,1-.44-.145q-1.2-.889-2.421-1.741a.742.742,0,0,1,.851-1.215q1.231.865,2.451,1.763a.742.742,0,0,1-.44,1.338m-75.813-.5a.741.741,0,0,1-.615-1.156c.572-.851,1.177-1.682,1.794-2.469a.741.741,0,1,1,1.166.914c-.6.759-1.178,1.56-1.731,2.383a.74.74,0,0,1-.615.327M318.7,34.428a.752.752,0,0,1-.4-.117q-1.258-.809-2.529-1.578a.741.741,0,1,1,.768-1.267q1.287.776,2.563,1.6a.741.741,0,0,1-.4,1.365m-64.916-2.037a.74.74,0,0,1-.526-1.261c.716-.725,1.467-1.425,2.233-2.086a.741.741,0,1,1,.966,1.123c-.735.634-1.457,1.308-2.146,2a.739.739,0,0,1-.528.219M312.254,30.6a.745.745,0,0,1-.354-.09q-1.325-.722-2.636-1.384a.741.741,0,0,1,.668-1.323q1.329.673,2.678,1.406a.741.741,0,0,1-.356,1.391m-52.69-2.967a.741.741,0,0,1-.41-1.359c.851-.562,1.731-1.094,2.621-1.58a.741.741,0,0,1,.708,1.3c-.852.465-1.7.975-2.51,1.514a.742.742,0,0,1-.409.123m45.967-.356a.738.738,0,0,1-.3-.062q-1.378-.609-2.741-1.153a.741.741,0,0,1,.55-1.377q1.387.553,2.79,1.174a.741.741,0,0,1-.3,1.418m-7-2.7a.746.746,0,0,1-.231-.037q-1.429-.473-2.839-.868a.741.741,0,1,1,.4-1.425q1.438.4,2.9.886a.741.741,0,0,1-.233,1.445M266.2,24.183a.74.74,0,0,1-.27-1.43c.935-.367,1.907-.7,2.89-1a.741.741,0,0,1,.425,1.42c-.942.283-1.876.606-2.774.959a.729.729,0,0,1-.271.052m25.1-1.551a.747.747,0,0,1-.151-.015q-1.471-.3-2.916-.519a.741.741,0,1,1,.221-1.465q1.483.224,2.993.532a.741.741,0,0,1-.147,1.467m-17.893-.464a.741.741,0,0,1-.127-1.47c.99-.176,2.008-.317,3.024-.421a.745.745,0,0,1,.811.664.737.737,0,0,1-.661.811c-.979.1-1.96.236-2.916.4a.763.763,0,0,1-.13.012m10.461-.542c-.015,0-.031,0-.046,0q-1.494-.093-2.952-.093a.741.741,0,1,1,0-1.482q1.5,0,3.044.1a.741.741,0,0,1-.046,1.48" transform="translate(115.131 9.66)" fill="#a8cff0"/>
            <path id="Path_64" data-name="Path 64" d="M334.822,85.433a.74.74,0,0,1-.7-.488l-.511-1.385A.741.741,0,1,1,335,83.044l.516,1.394a.742.742,0,0,1-.442.95.769.769,0,0,1-.255.044" transform="translate(160.712 39.777)" fill="#a8cff0"/>
            <path id="Path_65" data-name="Path 65" d="M316.7,160.024a.744.744,0,0,1-.688-.462q-.276-.682-.56-1.362a.741.741,0,1,1,1.366-.573q.289.687.569,1.38a.744.744,0,0,1-.41.965.76.76,0,0,1-.277.053" transform="translate(151.958 75.726)" fill="#d40054"/>
            <path id="Path_66" data-name="Path 66" d="M308.244,227.22h0c-.988,0-2-.055-3-.148a.744.744,0,0,1-.67-.808.77.77,0,0,1,.808-.668c.957.09,1.92.138,2.864.142a.741.741,0,0,1,0,1.482m4.385-.31a.741.741,0,0,1-.108-1.473,25.367,25.367,0,0,0,2.79-.576.741.741,0,1,1,.381,1.431,27.2,27.2,0,0,1-2.952.611.955.955,0,0,1-.111.007m-11.662-.516a.729.729,0,0,1-.157-.018c-.945-.2-1.919-.452-2.894-.732a.741.741,0,0,1,.412-1.424c.941.273,1.882.511,2.795.708a.741.741,0,0,1-.156,1.466m18.663-1.586a.74.74,0,0,1-.316-1.411,22.569,22.569,0,0,0,2.486-1.368.741.741,0,0,1,.794,1.251,24.143,24.143,0,0,1-2.649,1.458.755.755,0,0,1-.316.07m-25.674-.56a.72.72,0,0,1-.27-.052q-1.358-.533-2.74-1.163a.741.741,0,1,1,.616-1.348q1.345.613,2.664,1.132a.741.741,0,0,1-.271,1.431m31.718-3.536a.741.741,0,0,1-.5-1.283,24.872,24.872,0,0,0,1.969-2.055.74.74,0,1,1,1.126.96,25.98,25.98,0,0,1-2.088,2.18.733.733,0,0,1-.5.2m4.607-5.68a.741.741,0,0,1-.633-1.128c.487-.8.951-1.642,1.375-2.51a.741.741,0,0,1,1.332.651c-.446.908-.931,1.794-1.442,2.633a.743.743,0,0,1-.633.354m3.085-6.638a.756.756,0,0,1-.24-.04.741.741,0,0,1-.461-.941c.307-.889.587-1.815.834-2.756a.735.735,0,0,1,.905-.528.743.743,0,0,1,.527.907c-.258.974-.548,1.934-.865,2.857a.74.74,0,0,1-.7.5m1.763-7.111a.678.678,0,0,1-.123-.009.742.742,0,0,1-.611-.854q.233-1.4.388-2.864a.741.741,0,1,1,1.473.156q-.16,1.511-.4,2.952a.74.74,0,0,1-.729.619m.691-7.3H335.8a.744.744,0,0,1-.717-.766c.022-.664.033-1.34.033-2.023l-.006-.879a.742.742,0,0,1,.731-.751.781.781,0,0,1,.751.731l.006.9q0,1.049-.033,2.072a.741.741,0,0,1-.741.717m-.17-7.336a.741.741,0,0,1-.738-.683q-.109-1.443-.271-2.9a.741.741,0,0,1,1.473-.164q.164,1.48.277,2.949a.743.743,0,0,1-.683.8h-.058m-.886-7.286a.74.74,0,0,1-.731-.616q-.238-1.429-.527-2.864a.741.741,0,1,1,1.452-.292q.293,1.46.538,2.909a.743.743,0,0,1-.608.855.724.724,0,0,1-.124.009m-1.5-7.181a.742.742,0,0,1-.719-.56q-.353-1.411-.751-2.818a.741.741,0,1,1,1.427-.4q.4,1.431.762,2.86a.741.741,0,0,1-.538.9.763.763,0,0,1-.181.022m-2.045-7.05a.742.742,0,0,1-.7-.51q-.456-1.38-.948-2.758a.741.741,0,1,1,1.394-.5q.5,1.4.962,2.8a.741.741,0,0,1-.7.972" transform="translate(139.969 77.509)" fill="#d40054"/>
            <path id="Path_67" data-name="Path 67" d="M288.99,202.237a.731.731,0,0,1-.356-.092q-.651-.358-1.307-.735a.741.741,0,1,1,.738-1.285q.642.369,1.28.722a.741.741,0,0,1-.356,1.39" transform="translate(138.254 96.373)" fill="#d40054"/>
            <path id="Path_68" data-name="Path 68" d="M315.335,161.354h-.046a.741.741,0,0,1-.693-.785l.246-3.952a.741.741,0,0,1,1.181-.548l3.334,2.47a.74.74,0,1,1-.883,1.188l-2.239-1.658-.16,2.592a.741.741,0,0,1-.739.695" transform="translate(151.571 75.123)" fill="#d40054"/>
            <path id="Path_69" data-name="Path 69" d="M143.543,73.846c-.027-4.865-6.879-8.821-15.3-8.836s-15.234,3.916-15.209,8.78c.024,4.453,5.77,8.134,13.2,8.74L126.246,85c-1.408.215-2.448.948-2.443,1.832l.046,8.417c.006,1.054,1.491,1.91,3.315,1.914l2.5,0c1.824,0,3.3-.849,3.294-1.9l-.046-8.417c0-.883-1.052-1.62-2.464-1.84l-.013-2.466c7.427-.579,13.133-4.239,13.108-8.691" transform="translate(54.458 31.322)" fill="#fff"/>
            <path id="Path_70" data-name="Path 70" d="M350.422,448.309,85.525,295.282c-10.254-5.923-18.568-21.806-18.568-35.48V18.827c0-13.674,8.314-19.958,18.568-14.039l264.9,153.028c10.256,5.921,18.568,21.806,18.568,35.48V434.27c0,13.676-8.313,19.96-18.568,14.039" transform="translate(32.26 1.234)" fill="#d1ebff"/>
            <path id="Path_71" data-name="Path 71" d="M355.483,155.257,90.586,2.23C86.529-.114,82.775-.545,79.72.634c-.387.151-7.645,3.9-8.009,4.1l-.018.012C74.857,3.209,78.869,3.5,83.244,6.023l264.9,153.028c10.256,5.92,18.568,21.8,18.568,35.479V435.5c0,8.534-3.238,14.19-8.166,15.8a3.083,3.083,0,0,0,1.627-.553c.236-.136,7.935-4.3,8.159-4.462,3.527-2.47,5.723-7.547,5.723-14.575V190.737c0-13.674-8.313-29.559-18.568-35.48" transform="translate(34.542 0)" fill="#3f92d1"/>
            <path id="Path_72" data-name="Path 72" d="M353.4,155.93,88.506,2.9C84.449.559,80.7.128,77.64,1.307c-.387.151-5.564,2.9-5.93,3.1l-.016.012C74.856,2.885,78.87,3.173,83.245,5.7l264.9,153.028Z" transform="translate(34.542 0.324)" fill="#4f9fdb"/>
            <g id="Group_18" data-name="Group 18" transform="translate(107.493 3.37)" style="mix-blend-mode: screen;isolation: isolate">
              <g id="Group_17" data-name="Group 17">
                <g id="Group_16" data-name="Group 16" clip-path="url(#clip-path-7)">
                  <path id="Path_73" data-name="Path 73" d="M348.623,157.51,83.726,4.483c-4.2-2.43-8.071-2.775-11.183-1.43A13.705,13.705,0,0,1,81.5,5.15l264.9,153.028c10.255,5.921,18.568,21.806,18.568,35.48V434.632c0,8.065-2.906,13.533-7.384,15.469,5.729-.91,9.612-6.794,9.612-16.137V192.991c0-13.674-8.313-29.559-18.568-35.48" transform="translate(-72.542 -2.274)" fill="#fff"/>
                </g>
              </g>
            </g>
            <path id="Path_74" data-name="Path 74" d="M74,28V247.545C74,258.27,79.1,268.751,87.353,274L349.423,425.372c.1.056.246.142.434.249a3.554,3.554,0,0,0,5.314-3.084V190.429Z" transform="translate(35.651 13.489)" fill="#353535"/>
            <path id="Path_75" data-name="Path 75" d="M354.8,423.646c-.187-.107-.338-.193-.434-.249L92.292,272.021c-8.254-5.246-13.358-15.726-13.358-26.452V30.849L74,28V247.545c0,10.727,5.1,21.206,13.358,26.452L349.423,425.372c.1.056.246.142.434.249a3.545,3.545,0,0,0,5.1-1.912c-.052-.028-.107-.034-.157-.064" transform="translate(35.651 13.489)"/>
            <path id="Path_76" data-name="Path 76" d="M253.793,121a11.261,11.261,0,0,0,5.111,8.815c2.823,1.628,5.109.324,5.109-2.915a11.254,11.254,0,0,0-5.109-8.814c-2.823-1.63-5.111-.326-5.111,2.913" transform="translate(122.277 56.555)" fill="#fc0"/>
            <path id="Path_77" data-name="Path 77" d="M244.9,115.833a11.261,11.261,0,0,0,5.111,8.815c2.823,1.628,5.109.325,5.109-2.915a11.257,11.257,0,0,0-5.109-8.814c-2.823-1.63-5.111-.326-5.111,2.913" transform="translate(117.992 54.066)" fill="#d40054"/>
            <path id="Path_78" data-name="Path 78" d="M236,110.665a11.261,11.261,0,0,0,5.111,8.815c2.823,1.628,5.109.324,5.109-2.915a11.257,11.257,0,0,0-5.109-8.814c-2.823-1.63-5.111-.326-5.111,2.913" transform="translate(113.705 51.576)" fill="#0fbab8"/>
            <path id="Path_79" data-name="Path 79" d="M198.033,108.315l-19.222-11.1c-1.943-1.12-3.516-.224-3.516,2a7.747,7.747,0,0,0,3.516,6.065l19.222,11.1c1.941,1.12,3.516.224,3.516-2a7.751,7.751,0,0,0-3.516-6.065m31.644,18.271-19.222-11.1c-1.941-1.122-3.516-.224-3.516,2a7.748,7.748,0,0,0,3.516,6.064l19.222,11.1c1.943,1.12,3.516.224,3.516-2a7.745,7.745,0,0,0-3.516-6.065m31.645,18.269-19.222-11.1c-1.943-1.12-3.516-.224-3.516,2a7.747,7.747,0,0,0,3.516,6.065l19.222,11.1c1.941,1.122,3.516.224,3.516-2a7.751,7.751,0,0,0-3.516-6.065m31.644,18.271-19.222-11.1c-1.941-1.122-3.516-.224-3.516,2a7.748,7.748,0,0,0,3.516,6.064l19.222,11.1c1.943,1.122,3.515.225,3.515-2a7.745,7.745,0,0,0-3.515-6.065" transform="translate(84.457 46.607)" fill="#d40054"/>
            <path id="Path_80" data-name="Path 80" d="M139.171,117.053v82.72l9.046-5.3V111.522Z" transform="translate(67.052 53.731)" fill="#2672ab"/>
            <path id="Path_81" data-name="Path 81" d="M197.875,148.983V231.7L17.4,128.205V45.25Z" transform="translate(8.382 21.801)" fill="#3f92d1"/>
            <path id="Path_82" data-name="Path 82" d="M17.4,47.021,197.875,150.755l9.014-5.532L26.352,41.573Z" transform="translate(8.382 20.03)" fill="#72b5e8"/>
            <g id="Group_21" data-name="Group 21" transform="translate(25.78 67.051)" opacity="0.7">
              <g id="Group_20" data-name="Group 20">
                <g id="Group_19" data-name="Group 19" clip-path="url(#clip-path-8)">
                  <path id="Path_83" data-name="Path 83" d="M17.4,45.25,197.875,148.983l9.014-5.532-9.039,4.272Z" transform="translate(-17.397 -45.25)" fill="#fff"/>
                </g>
              </g>
            </g>
            <path id="Path_84" data-name="Path 84" d="M139.875,162.5v-3.512l-56.959-32.38v3.512Z" transform="translate(39.949 61)" fill="#fff"/>
            <path id="Path_85" data-name="Path 85" d="M66.27,82.522v3.512l95.743,54.773v-3.513Z" transform="translate(31.929 39.759)" fill="#fff"/>
            <path id="Path_86" data-name="Path 86" d="M99.981,121.686,66.27,102.223v3.512L99.981,125.2Z" transform="translate(31.929 49.251)" fill="#fff"/>
            <path id="Path_87" data-name="Path 87" d="M104.416,134.1v3.512l13.924,7.535v-3.513Z" transform="translate(50.308 64.608)" fill="#fff"/>
            <path id="Path_88" data-name="Path 88" d="M120.633,123.76,66.269,92.373v3.512l54.364,31.387Z" transform="translate(31.928 44.505)" fill="#fff"/>
            <path id="Path_89" data-name="Path 89" d="M86.182,108.794,66.269,97.3v3.513l19.912,11.5Z" transform="translate(31.928 46.878)" fill="#fff"/>
            <path id="Path_90" data-name="Path 90" d="M76.291,121.372l38.217,22.065v-3.513L76.291,117.859Z" transform="translate(36.757 56.784)" fill="#fff"/>
            <path id="Path_91" data-name="Path 91" d="M82.041,106.4v3.512L135.7,140.388v-3.512Z" transform="translate(39.527 51.265)" fill="#fff"/>
            <path id="Path_92" data-name="Path 92" d="M91.354,116.705v3.512l26.826,15.489v-3.512Z" transform="translate(44.014 56.228)" fill="#fff"/>
            <path id="Path_93" data-name="Path 93" d="M77.661,118.65,66.27,112.074v3.512l11.391,6.578Z" transform="translate(31.929 53.997)" fill="#fff"/>
            <path id="Path_94" data-name="Path 94" d="M105.291,118.414,143.213,139.8V136.29L105.291,114.9Z" transform="translate(50.729 55.36)" fill="#fff"/>
            <path id="Path_95" data-name="Path 95" d="M120.585,131.827l15.26,8.811v-3.512l-15.26-8.811Z" transform="translate(58.098 61.822)" fill="#fff"/>
            <path id="Path_96" data-name="Path 96" d="M66.27,90.959l95.743,54.772v-3.512L66.27,87.448Z" transform="translate(31.929 42.132)" fill="#fff"/>
            <path id="Path_97" data-name="Path 97" d="M111.791,132.016l28.29,15.829v-3.512L111.791,128.5Z" transform="translate(53.861 61.913)" fill="#fff"/>
            <path id="Path_98" data-name="Path 98" d="M87.478,129.243,66.269,117v3.513l21.209,12.246Z" transform="translate(31.928 56.369)" fill="#fff"/>
            <path id="Path_99" data-name="Path 99" d="M123.689,153.321l10.66,6.154v-3.512l-10.66-6.154Z" transform="translate(59.593 72.178)" fill="#fff"/>
            <path id="Path_100" data-name="Path 100" d="M116.148,144.041l21.834,12.606v-3.512L116.148,140.53Z" transform="translate(55.96 67.707)" fill="#fff"/>
            <path id="Path_101" data-name="Path 101" d="M66.27,110.66l95.743,54.772V161.92L66.27,107.148Z" transform="translate(31.929 51.624)" fill="#fff"/>
            <path id="Path_102" data-name="Path 102" d="M66.243,79.457,34.767,61.249c-5.5-3.177-9.964.2-9.964,7.532v36.434c0,7.338,4.46,15.861,9.964,19.038l31.476,18.208c5.5,3.178,9.965-.194,9.965-7.532V98.5c0-7.338-4.462-15.861-9.965-19.038" transform="translate(11.95 28.934)" fill="#2672ab"/>
            <path id="Path_103" data-name="Path 103" d="M70.133,139.473,38.656,121.264c-5.5-3.177-9.964-11.7-9.964-19.038V65.793a11.95,11.95,0,0,1,1.231-5.687c-3.054.507-5.121,3.657-5.121,8.651V105.19c0,7.338,4.46,15.861,9.964,19.038l31.476,18.208c3.764,2.172,7.037,1.28,8.732-1.846a7.33,7.33,0,0,1-4.843-1.117" transform="translate(11.95 28.959)" fill="#084c94"/>
            <path id="Path_104" data-name="Path 104" d="M49.743,86.332,18.267,68.124c-5.5-3.177-9.964.2-9.964,7.532V112.09c0,7.338,4.46,15.861,9.964,19.038l31.476,18.208c5.5,3.178,9.965-.194,9.965-7.532V105.37c0-7.338-4.462-15.861-9.965-19.038" transform="translate(4 32.246)" fill="#0fbab8"/>
            <path id="Path_105" data-name="Path 105" d="M53.782,84.3,22.305,66.09c-2.358-1.36-4.519-1.513-6.225-.673l-.053-.059-5.447,3.2.021.068c1.754-1.045,4.048-.977,6.569.479L48.644,87.308c5.5,3.178,9.965,11.7,9.965,19.04v36.434c0,3.565-1.059,6.185-2.774,7.581l3.036-2c2.552-1.463,4.872-3.739,4.872-8.591V103.337c0-7.338-4.46-15.861-9.962-19.038" transform="translate(5.097 31.268)" fill="#0ba19f"/>
            <g id="Group_24" data-name="Group 24" transform="translate(15.818 98.71)" opacity="0.7">
              <g id="Group_23" data-name="Group 23">
                <g id="Group_22" data-name="Group 22" clip-path="url(#clip-path-9)">
                  <path id="Path_106" data-name="Path 106" d="M49.16,86.017,17.684,67.808c-2.734-1.578-5.209-1.537-7.009-.2a6.732,6.732,0,0,1,5.8.854L47.948,86.669c5.5,3.178,9.964,11.7,9.964,19.04v36.433c0,3.694-1.131,6.379-2.955,7.734,2.519-.956,4.168-3.934,4.168-8.385V105.056c0-7.339-4.462-15.861-9.965-19.04" transform="translate(-10.675 -66.615)" fill="#fff"/>
                </g>
              </g>
            </g>
            <path id="Path_107" data-name="Path 107" d="M13.937,74.52v41.708l34.136,19.715V94.237Zm31.948,57.635-29.759-17.19V78.312L45.885,95.5Z" transform="translate(6.715 35.904)" fill="#fff"/>
            <path id="Path_108" data-name="Path 108" d="M34.717,95.441c0,2.732-1.931,3.833-4.312,2.458a9.5,9.5,0,0,1-4.312-7.437c0-2.732,1.931-3.833,4.312-2.458a9.5,9.5,0,0,1,4.312,7.437" transform="translate(12.572 42.115)" fill="#fff"/>
            <path id="Path_109" data-name="Path 109" d="M14.709,98.923,23.6,87.438l9.024,22.835,6.564-5.333,7.246,19.69-.138,1.993L14.845,109.8Z" transform="translate(7.087 42.127)" fill="#fff"/>
            <path id="Path_110" data-name="Path 110" d="M289.689,220.848V321.87l9.048-5.3V215.318Z" transform="translate(139.572 103.74)" fill="#2672ab"/>
            <path id="Path_111" data-name="Path 111" d="M353.934,255.954V356.976L156.416,243.709V142.453Z" transform="translate(75.361 68.634)" fill="#3f92d1"/>
            <path id="Path_112" data-name="Path 112" d="M156.416,144.225l197.518,113.5,9.014-5.532L165.371,138.776Z" transform="translate(75.361 66.862)" fill="#72b5e8"/>
            <g id="Group_27" data-name="Group 27" transform="translate(231.777 211.087)" opacity="0.7">
              <g id="Group_26" data-name="Group 26">
                <g id="Group_25" data-name="Group 25" clip-path="url(#clip-path-10)">
                  <path id="Path_113" data-name="Path 113" d="M156.416,142.453l197.518,113.5,9.014-5.532-9.039,4.272Z" transform="translate(-156.416 -142.453)" fill="#fff"/>
                </g>
              </g>
            </g>
            <path id="Path_114" data-name="Path 114" d="M301.775,267.669c0,19.643-13.877,27.555-30.995,17.672s-31-33.818-31-53.46,13.877-27.556,31-17.672,30.995,33.818,30.995,53.46" transform="translate(115.528 101.154)" fill="#2672ab"/>
            <path id="Path_115" data-name="Path 115" d="M273.744,281.913c-17.119-9.884-31-33.818-31-53.46,0-7.329,1.935-13.022,5.246-16.771-5.093,3.4-8.209,10.063-8.209,19.364,0,19.643,13.877,43.577,31,53.46,10.731,6.2,20.187,5.4,25.751-.9-5.663,3.776-13.775,3.512-22.787-1.692" transform="translate(115.528 101.988)" fill="#084c94"/>
            <path id="Path_116" data-name="Path 116" d="M220.224,182.366l-6.665-3.847v75.1l6.665,3.848Zm9.6-3.767-6.664-3.847v84.328l6.664,3.848Zm9.881,16.967-6.664-3.848v73.007l6.664,3.848Zm-45.9,5.289V242l6.664,3.847V204.7Zm16.544-11.437-6.664-3.848v62.077l6.664,3.848Zm39.05,27-6.664-3.848v57.8l6.664,3.848Zm9.5,23.835-6.664-3.848v39.52l6.664,3.848Zm-68.315-46.529-6.665-3.847v46.167l6.665,3.848Zm-26.425,2.727v27.972l6.664,3.848V200.3ZM180.7,185.478l-6.664-3.848v48.439l6.664,3.847Z" transform="translate(79.09 84.196)" fill="#2672ab"/>
            <path id="Path_117" data-name="Path 117" d="M220.224,207.781l-6.665-3.848v45.623l6.665,3.848Zm9.6-20.742-6.664-3.848v71.824l6.664,3.848Zm9.881,17.793-6.664-3.848v59.676l6.664,3.847Zm-45.9,1.955v31.149l6.664,3.847V210.635Zm16.544-1.221-6.664-3.848v41.864l6.664,3.848Zm-19.763-12.132-6.665-3.847v42.39l6.665,3.848Zm-26.425,18.822v8.1l6.665,3.848v-8.1Zm16.546.015-6.665-3.847V226l6.665,3.848Zm68.693,10.838-6.664-3.848v47.046l6.664,3.848Zm9.5,18.939-6.664-3.848v33.658l6.664,3.848Z" transform="translate(79.09 88.261)" fill="#a8cff0"/>
            <path id="Path_118" data-name="Path 118" d="M217.305,199.879l-6.664-3.848V195.2l6.664,3.847Z" transform="translate(101.487 94.047)" fill="#fff"/>
            <path id="Path_119" data-name="Path 119" d="M210.637,187.871l-6.664-3.848v-.831l6.664,3.847Z" transform="translate(98.274 88.262)" fill="#fff"/>
            <path id="Path_120" data-name="Path 120" d="M230.26,224.994l-6.664-3.848v-.831l6.664,3.847Z" transform="translate(107.728 106.147)" fill="#fff"/>
            <path id="Path_121" data-name="Path 121" d="M204.161,201.869l-6.665-3.848v-.831l6.665,3.847Z" transform="translate(95.153 95.006)" fill="#fff"/>
            <path id="Path_122" data-name="Path 122" d="M223.846,212.215l-6.664-3.848v-.833l6.664,3.848Z" transform="translate(104.638 99.989)" fill="#fff"/>
            <path id="Path_123" data-name="Path 123" d="M177.488,204.9l-6.664-3.848v-.833l6.664,3.848Z" transform="translate(82.303 96.466)" fill="#fff"/>
            <path id="Path_124" data-name="Path 124" d="M184.157,192.188l-6.665-3.848v-.831l6.665,3.847Z" transform="translate(85.515 90.341)" fill="#fff"/>
            <path id="Path_125" data-name="Path 125" d="M170.82,206.654v.833l-6.664-3.848v-.833Z" transform="translate(79.09 97.711)" fill="#fff"/>
            <path id="Path_126" data-name="Path 126" d="M197.493,200.374l-6.664-3.848v-.831l6.664,3.847Z" transform="translate(91.941 94.285)" fill="#fff"/>
            <path id="Path_127" data-name="Path 127" d="M190.825,203.8l-6.664-3.848v-.831l6.664,3.847Z" transform="translate(88.729 95.934)" fill="#fff"/>
            <path id="Path_128" data-name="Path 128" d="M242.076,235.807c.406-14.848,11.2-20.75,24.438-13.105,6.816,3.936,12.984,10.716,17.426,18.456l4.884-1.227c-5.564-10.093-13.5-19-22.31-24.079-16.661-9.62-30.233-2.015-30.438,16.933l3.907,3.547Z" transform="translate(113.741 101.989)" fill="#fc0"/>
            <path id="Path_129" data-name="Path 129" d="M279.379,273.91c-3.613.33-7.8-.677-12.271-3.261-12.542-7.24-22.9-24.1-24.3-38.878l-5.976-3.014c.009.11-2,.516-1.987.624,1.728,18.392,16.651,39.1,32.265,48.118,5.669,3.275,9.507,5,14.058,4.512.191-.021,1.854-.493,2.042-.52Z" transform="translate(113.148 110.215)" fill="#fc0"/>
            <path id="Path_130" data-name="Path 130" d="M271.4,235a46.738,46.738,0,0,1,4.737,19.274c0,8.873-3.614,14.7-9.233,16.606l3.785,7.492c6.956-2.393,11.42-9.645,11.42-20.652,0-7.683-2.178-16.045-5.855-23.941Z" transform="translate(128.594 112.635)" fill="#fc0"/>
            <path id="Path_131" data-name="Path 131" d="M269.155,251.915a20.845,20.845,0,0,1-4.291-5.139c-.71-1.188-.685-2.478,0-2.878a5.486,5.486,0,0,0,2.192-2.445c.753.207,1.686-.068,1.686-1.1a4.081,4.081,0,0,0-1.088-2.777c-.184-4.5-1.722-9.132-6.9-12.121-1.811-1.046-3.177-1.378-4.195-1.184-.237.044-2.291.585-2.492.686-1.4.7-.111,2.206-.215,4.648-.621-.138-1.088.471-1.088,1.523a4.98,4.98,0,0,0,1.686,3.047,24.419,24.419,0,0,0,2.192,4.974c.689,1.2.714,2.516.006,2.885a5.657,5.657,0,0,1-4.293.182,3.244,3.244,0,0,0-1.794-.073c-.15.043-2,.522-2.131.59-.965.48.133,1.182.133,2.815v4.644a3.131,3.131,0,0,0,1.421,2.449l19.9,13.173c.345.2,2.3-.5,2.546-.59a.929.929,0,0,0,.514-.957v-4.644a11.057,11.057,0,0,0-3.792-7.71" transform="translate(119.503 108.028)" fill="#fc0"/>
            <path id="Path_132" data-name="Path 132" d="M241.173,236.066c.406-14.848,11.2-20.751,24.438-13.107,6.816,3.936,12.984,10.716,17.426,18.457l4.885-1.228c-5.564-10.092-13.5-19-22.311-24.079-16.661-9.62-30.233-2.015-30.438,16.933Z" transform="translate(113.306 102.113)" fill="#fff"/>
            <path id="Path_133" data-name="Path 133" d="M277.829,274.167c-3.613.33-7.8-.677-12.271-3.26-12.54-7.242-22.9-24.1-24.3-38.879l-5.976-3.014c1.606,18.471,14.571,39.675,30.278,48.742,5.908,3.413,11.426,4.65,16.1,3.992Z" transform="translate(113.358 110.339)" fill="#fff"/>
            <path id="Path_134" data-name="Path 134" d="M270.5,235.258a46.762,46.762,0,0,1,4.737,19.274c0,8.875-3.616,14.7-9.233,16.607l3.784,7.492c6.954-2.393,11.419-9.644,11.419-20.652,0-7.683-2.177-16.045-5.855-23.941Z" transform="translate(128.159 112.759)" fill="#fff"/>
            <path id="Path_135" data-name="Path 135" d="M268.08,252.174a20.913,20.913,0,0,1-4.291-5.14c-.71-1.188-.685-2.476,0-2.878a5.486,5.486,0,0,0,2.192-2.445c.753.207,1.686-.068,1.686-1.1a4.073,4.073,0,0,0-1.088-2.777c-.184-4.5-1.722-9.131-6.9-12.121s-6.718-.139-6.9,4.151c-.621-.138-1.088.471-1.088,1.523a4.98,4.98,0,0,0,1.686,3.047,24.5,24.5,0,0,0,2.192,4.974c.689,1.2.716,2.516.006,2.885a5.657,5.657,0,0,1-4.293.182c-2.175-.656-3.792.655-3.792,3.334v4.644a3.128,3.128,0,0,0,1.421,2.448l21.541,12.437c.784.452,1.42.089,1.42-.811v-4.642a11.054,11.054,0,0,0-3.792-7.71" transform="translate(119.24 108.152)" fill="#fff"/>
            <path id="Path_136" data-name="Path 136" d="M240.657,236.195c.4-14.848,11.2-20.75,24.438-13.107,6.816,3.936,12.983,10.716,17.426,18.457l4.884-1.228c-5.564-10.093-13.5-19-22.31-24.079-16.661-9.618-30.233-2.015-30.438,16.933Z" transform="translate(113.057 102.175)" fill="#ffde17"/>
            <path id="Path_137" data-name="Path 137" d="M277.314,274.3c-3.613.33-7.8-.677-12.271-3.26-12.542-7.242-22.9-24.1-24.3-38.879l-5.976-3.014c1.6,18.471,14.571,39.675,30.278,48.744,5.908,3.411,11.426,4.648,16.1,3.99Z" transform="translate(113.11 110.401)" fill="#ffde17"/>
            <path id="Path_138" data-name="Path 138" d="M269.981,235.387a46.74,46.74,0,0,1,4.737,19.274c0,8.874-3.614,14.7-9.233,16.607l3.785,7.492c6.956-2.393,11.42-9.644,11.42-20.652,0-7.683-2.178-16.045-5.855-23.941Z" transform="translate(127.91 112.821)" fill="#ffde17"/>
            <path id="Path_139" data-name="Path 139" d="M267.564,252.3a20.881,20.881,0,0,1-4.291-5.14c-.71-1.188-.685-2.476,0-2.878a5.486,5.486,0,0,0,2.192-2.445c.753.208,1.686-.068,1.686-1.1a4.08,4.08,0,0,0-1.088-2.777c-.184-4.5-1.723-9.131-6.9-12.121s-6.718-.139-6.9,4.151c-.621-.136-1.088.471-1.088,1.523a4.98,4.98,0,0,0,1.686,3.047,24.414,24.414,0,0,0,2.192,4.974c.689,1.2.714,2.516.006,2.885a5.663,5.663,0,0,1-4.293.184c-2.175-.658-3.792.654-3.792,3.333v4.644a3.124,3.124,0,0,0,1.42,2.448l21.541,12.437c.784.452,1.421.09,1.421-.809v-4.644a11.054,11.054,0,0,0-3.792-7.71" transform="translate(118.992 108.214)" fill="#ffde17"/>
            <path id="Path_140" data-name="Path 140" d="M99.5,55.871v29.5l4.45-2.451V53.192Z" transform="translate(47.938 25.628)" fill="#fc0"/>
            <path id="Path_141" data-name="Path 141" d="M108.059,60.007v29.5L81.8,74.334V44.607Z" transform="translate(39.41 21.491)" fill="#ffd70f"/>
            <path id="Path_142" data-name="Path 142" d="M81.8,45.451l26.26,15.4,4.416-2.679L86.157,42.854Z" transform="translate(39.411 20.647)" fill="#ffde17"/>
            <path id="Path_143" data-name="Path 143" d="M81.8,44.607l26.26,15.4,4.416-2.679-4.64,1.258Z" transform="translate(39.411 21.491)" fill="#fff"/>
            <path id="Path_144" data-name="Path 144" d="M115.081,49.77V97.539l7.2-3.968V45.432Z" transform="translate(55.446 21.889)" fill="#a50848"/>
            <path id="Path_145" data-name="Path 145" d="M86.42,32.9l42.523,24.937,7.151-4.339L93.479,28.69Z" transform="translate(41.637 13.823)" fill="#a50848"/>
            <g id="Group_30" data-name="Group 30" transform="translate(128.058 46.721)" opacity="0.7">
              <g id="Group_29" data-name="Group 29">
                <g id="Group_28" data-name="Group 28" clip-path="url(#clip-path-11)">
                  <path id="Path_146" data-name="Path 146" d="M86.42,31.53l42.523,24.937,7.151-4.339-6.959,3.313Z" transform="translate(-86.421 -31.53)" fill="#fff"/>
                </g>
              </g>
            </g>
            <path id="Path_147" data-name="Path 147" d="M86.42,31.53V51.342l22.506,13.2v28.13l20.018,11.565V56.468Z" transform="translate(41.637 15.191)" fill="#d40054"/>
            <path id="Path_148" data-name="Path 148" d="M176.42,127.176v32.979l4.973-2.74V124.18Z" transform="translate(84.999 59.83)" fill="#0ba19f"/>
            <path id="Path_149" data-name="Path 149" d="M185.99,131.8v32.979l-29.357-16.961V114.583Z" transform="translate(75.465 55.206)" fill="#0fbab8"/>
            <path id="Path_150" data-name="Path 150" d="M156.632,115.527l29.357,17.217,4.939-3-29.423-17.125Z" transform="translate(75.465 54.261)" fill="#3ecfcd"/>
            <g id="Group_33" data-name="Group 33" transform="translate(232.097 169.789)" opacity="0.7">
              <g id="Group_32" data-name="Group 32">
                <g id="Group_31" data-name="Group 31" clip-path="url(#clip-path-12)">
                  <path id="Path_151" data-name="Path 151" d="M156.632,114.583,185.989,131.8l4.939-3-5.186,1.408Z" transform="translate(-156.632 -114.583)" fill="#fff"/>
                </g>
              </g>
            </g>
            <path id="Path_152" data-name="Path 152" d="M202.42,142.175v32.98l4.973-2.741V139.18Z" transform="translate(97.526 67.057)" fill="#0ba19f"/>
            <path id="Path_153" data-name="Path 153" d="M211.99,146.8v32.98l-29.357-16.961V129.582Z" transform="translate(87.992 62.433)" fill="#0fbab8"/>
            <path id="Path_154" data-name="Path 154" d="M182.632,130.527l29.357,17.217,4.939-3-29.423-17.125Z" transform="translate(87.992 61.488)" fill="#3ecfcd"/>
            <g id="Group_36" data-name="Group 36" transform="translate(270.624 192.016)" opacity="0.7">
              <g id="Group_35" data-name="Group 35">
                <g id="Group_34" data-name="Group 34" clip-path="url(#clip-path-12)">
                  <path id="Path_155" data-name="Path 155" d="M182.632,129.583,211.989,146.8l4.939-3-5.186,1.406Z" transform="translate(-182.632 -129.583)" fill="#fff"/>
                </g>
              </g>
            </g>
            <path id="Path_156" data-name="Path 156" d="M228.253,157.009v32.979l4.974-2.74V154.014Z" transform="translate(109.972 74.204)" fill="#0ba19f"/>
            <path id="Path_157" data-name="Path 157" d="M237.824,161.633v32.979l-29.357-16.961V144.416Z" transform="translate(100.439 69.58)" fill="#0fbab8"/>
            <path id="Path_158" data-name="Path 158" d="M208.466,145.361l29.357,17.217,4.939-2.995-29.424-17.128Z" transform="translate(100.439 68.635)" fill="#3ecfcd"/>
            <g id="Group_39" data-name="Group 39" transform="translate(308.905 213.995)" opacity="0.7">
              <g id="Group_38" data-name="Group 38">
                <g id="Group_37" data-name="Group 37" clip-path="url(#clip-path-14)">
                  <path id="Path_159" data-name="Path 159" d="M208.466,144.416l29.357,17.217,4.939-2.995-5.186,1.406Z" transform="translate(-208.466 -144.416)" fill="#fff"/>
                </g>
              </g>
            </g>
            <path id="Path_160" data-name="Path 160" d="M253.753,171.509v32.979l4.974-2.74V168.514Z" transform="translate(122.258 81.19)" fill="#0ba19f"/>
            <path id="Path_161" data-name="Path 161" d="M263.324,176.133v32.979l-29.357-16.961V158.916Z" transform="translate(112.725 76.566)" fill="#0fbab8"/>
            <path id="Path_162" data-name="Path 162" d="M233.966,159.861l29.357,17.217,4.939-2.995-29.424-17.128Z" transform="translate(112.725 75.621)" fill="#3ecfcd"/>
            <g id="Group_42" data-name="Group 42" transform="translate(346.691 235.482)" opacity="0.7">
              <g id="Group_41" data-name="Group 41">
                <g id="Group_40" data-name="Group 40" clip-path="url(#clip-path-14)">
                  <path id="Path_163" data-name="Path 163" d="M233.966,158.916l29.357,17.217,4.939-2.995-5.186,1.406Z" transform="translate(-233.966 -158.916)" fill="#fff"/>
                </g>
              </g>
            </g>
            <path id="Path_164" data-name="Path 164" d="M226.557,171.16a13.25,13.25,0,0,1-2.716-3.251c-.449-.753-.433-1.569,0-1.823a3.464,3.464,0,0,0,1.385-1.547c.477.132,1.067-.043,1.067-.695a2.574,2.574,0,0,0-.688-1.759,8.642,8.642,0,0,0-4.368-7.671c-3.278-1.892-4.25-.087-4.367,2.629-.394-.089-.688.3-.688.963a3.148,3.148,0,0,0,1.067,1.928,15.43,15.43,0,0,0,1.385,3.147c.437.759.453,1.591,0,1.826a3.58,3.58,0,0,1-2.716.116c-1.377-.416-2.4.415-2.4,2.109v2.94a1.984,1.984,0,0,0,.9,1.55l13.631,7.868c.5.286.9.058.9-.513v-2.938a6.991,6.991,0,0,0-2.4-4.878" transform="translate(102.878 74.02)" fill="#fff"/>
            <path id="Path_165" data-name="Path 165" d="M237.545,184.345l4.758,2.749v-8.532l-4.758-2.746Zm7.533,4.351,4.76,2.747V175.8l-4.76-2.747Zm7.535-18.4v22.75l4.758,2.746V173.043Z" transform="translate(114.449 82.048)" fill="#fff"/>
            <path id="Path_166" data-name="Path 166" d="M203.2,155.264a11.058,11.058,0,0,0-.095-1.348l2.248-.283a20.177,20.177,0,0,0-1.02-3.4l-2.561-.775a18.047,18.047,0,0,0-1.594-2.75l.613-2.584a20.481,20.481,0,0,0-2.454-2.586l-1.378,1.784a10.661,10.661,0,0,0-1.128-.76,8.525,8.525,0,0,0-1.126-.541l-1.378-3.377a6.874,6.874,0,0,0-2.454-.247l.613,3.294a3.511,3.511,0,0,0-1.594.908l-2.561-2.181a6.668,6.668,0,0,0-1.019,2.226l2.248,2.881a8.566,8.566,0,0,0-.095,1.237,11.064,11.064,0,0,0,.095,1.348l-2.248.283a20.177,20.177,0,0,0,1.019,3.4l2.561.776a18.027,18.027,0,0,0,1.594,2.749l-.613,2.584a20.377,20.377,0,0,0,2.454,2.586L194.7,158.7a10.8,10.8,0,0,0,1.126.76,8.63,8.63,0,0,0,1.128.541l1.378,3.377a6.873,6.873,0,0,0,2.454.247l-.613-3.294a3.512,3.512,0,0,0,1.594-.908l2.561,2.181a6.655,6.655,0,0,0,1.02-2.226L203.1,156.5a8.561,8.561,0,0,0,.095-1.237m-7.367-.858a6.519,6.519,0,0,1-2.958-5.1c0-1.876,1.323-2.632,2.958-1.688a6.517,6.517,0,0,1,2.959,5.1c0,1.876-1.323,2.632-2.959,1.688" transform="translate(89.764 66.665)" fill="#fff"/>
            <path id="Path_167" data-name="Path 167" d="M160.308,123.447l9.449,14.766,9.449-3.854.009.012a3.622,3.622,0,0,0-1.123-1.092l-16.672-9.626a1.422,1.422,0,0,0-1.122-.2l.009,0" transform="translate(77.232 59.457)" fill="#fff"/>
            <path id="Path_168" data-name="Path 168" d="M179.474,134.387l-9.479,5.4-2.684-4.629-6.766,2.761-.03-.044,6.292-3.586-6.29-10.851a1.188,1.188,0,0,0-.711,1.252v11.293a4.084,4.084,0,0,0,1.852,3.195L178.33,148.8c1.022.593,1.854.12,1.854-1.055V136.457a3.884,3.884,0,0,0-.71-2.07m-.03,14.446-6.766-10.573.5-.287,6.292,10.85-.03.01" transform="translate(76.994 59.474)" fill="#fff"/>
            <path id="Path_169" data-name="Path 169" d="M76.644,192.588v42.3l6.68-3.8V188.552Z" transform="translate(36.927 90.844)" fill="#2672ab"/>
            <path id="Path_170" data-name="Path 170" d="M113.605,212.672v42.3L0,189.4V146.867Z" transform="translate(0 70.76)" fill="#3f92d1"/>
            <path id="Path_171" data-name="Path 171" d="M0,148.151l113.605,65.805,6.644-4.035L6.587,144.2Z" transform="translate(0 69.475)" fill="#72b5e8"/>
            <g id="Group_45" data-name="Group 45" transform="translate(0 217.626)" opacity="0.7">
              <g id="Group_44" data-name="Group 44">
                <g id="Group_43" data-name="Group 43" clip-path="url(#clip-path-16)">
                  <path id="Path_172" data-name="Path 172" d="M0,146.866l113.605,65.805,6.644-4.035-6.916,2.777Z" transform="translate(0 -146.866)" fill="#fff"/>
                </g>
              </g>
            </g>
            <path id="Path_173" data-name="Path 173" d="M41.022,173.216,20.253,161.225c-1.274-.735-2.307-.147-2.307,1.316v14.068a5.085,5.085,0,0,0,2.307,3.979l12.981,7.495,6.49,11.195v-7.449l1.3.75c1.274.736,2.307.148,2.307-1.316V177.2a5.085,5.085,0,0,0-2.307-3.98M26.38,175.849c-.676.385-1.771-.247-2.448-1.414s-.676-2.423,0-2.809,1.772.247,2.448,1.415.676,2.421,0,2.808M32,179.1c-.676.384-1.772-.247-2.448-1.415s-.676-2.421,0-2.807,1.772.246,2.448,1.412.676,2.424,0,2.81m5.625,3.247c-.676.385-1.772-.247-2.448-1.412s-.676-2.424,0-2.81,1.772.247,2.448,1.412.676,2.424,0,2.809m-21.415-6.735V164.19l-7.934-4.58c-1.273-.736-2.307-.147-2.307,1.316v14.067a5.094,5.094,0,0,0,2.307,3.982l1.3.748v7.448l6.49-3.7,12.981,7.493c1.274.735,2.309.147,2.309-1.314v-.664l-11.106-6.412a8.911,8.911,0,0,1-4.038-6.964" transform="translate(2.878 76.747)" fill="#fff"/>
            <path id="Path_174" data-name="Path 174" d="M34.374,173.464v3.512l54.272,31.337V204.8Z" transform="translate(16.561 83.575)" fill="#fff"/>
            <path id="Path_175" data-name="Path 175" d="M71.483,204.759,34.374,183.314v3.512l37.109,21.445Z" transform="translate(16.561 88.321)" fill="#fff"/>
            <path id="Path_176" data-name="Path 176" d="M34.374,181.9l54.272,31.336v-3.512L34.374,178.389Z" transform="translate(16.561 85.948)" fill="#fff"/>
            <g id="Group_48" data-name="Group 48" transform="translate(98.664 330.014)" opacity="0.2">
              <g id="Group_47" data-name="Group 47">
                <g id="Group_46" data-name="Group 46" clip-path="url(#clip-path-17)">
                  <path id="Path_177" data-name="Path 177" d="M157.195,264.559l-35.28-19.806c3.047-2.235,4.834-4.893,4.834-7.754,0-7.891-13.468-14.287-30.082-14.287S66.584,229.109,66.584,237s13.467,14.29,30.082,14.29a60.488,60.488,0,0,0,9.869-.8l37.99,21.333c2.452,1.417,6.738,1.24,9.569-.4,3.137-1.593,6.864-4.642,3.1-6.865" transform="translate(-66.584 -222.712)" fill="#92b4d1"/>
                </g>
              </g>
            </g>
            <path id="Path_178" data-name="Path 178" d="M132.588,249.7a8.074,8.074,0,1,1-10.939-3.279,8.075,8.075,0,0,1,10.939,3.279" transform="translate(56.565 118.261)" fill="#001a46"/>
            <path id="Path_179" data-name="Path 179" d="M116.092,214.059l-17.482,9.42,26.078,48.107h0c.012.024.021.049.034.071,1.516,2.812,6.655,2.981,11.482.381s7.514-6.99,6-9.8c-.012-.025-.028-.047-.04-.07h0Z" transform="translate(47.51 103.133)" fill="#084c94"/>
            <path id="Path_180" data-name="Path 180" d="M116.242,214.805c1.514,2.811-1.171,7.2-6,9.8s-9.968,2.43-11.484-.381,1.171-7.2,6-9.8,9.97-2.43,11.484.379" transform="translate(47.379 102.421)" fill="#2672ab"/>
            <path id="Path_181" data-name="Path 181" d="M106.064,205.445l-10.4,5.6,7.394,13.721h0a.274.274,0,0,0,.021.042c.9,1.673,3.959,1.775,6.831.228s4.468-4.158,3.567-5.831l-.025-.04h0Z" transform="translate(46.092 98.983)" fill="#001a46"/>
            <path id="Path_182" data-name="Path 182" d="M97.906,133.142c-12.946-7.474-24.687-8.331-33.277-3.679-.242.13-12.569,7.01-12.957,7.6,8.741-6.594,21.683-6.493,36.125,1.845,26.326,15.2,47.669,52.011,47.669,82.222,0,15.414-5.558,26.127-14.5,30.907a10.837,10.837,0,0,0,2.328-1.021c.253-.144,8.66-5.237,8.909-5.389,8.277-5.059,13.37-15.511,13.37-30.269,0-30.208-21.341-67.02-47.668-82.221" transform="translate(24.895 60.993)" fill="#72b5e8"/>
            <path id="Path_183" data-name="Path 183" d="M91.549,137.036c-26.326-15.2-47.668-3.032-47.668,27.178s21.342,67.02,47.668,82.221,47.669,3.032,47.669-27.178-21.342-67.022-47.669-82.221m-.714,102.185c-22.341-12.9-40.452-44.137-40.452-69.773s18.111-35.96,40.452-23.061,40.452,44.137,40.452,69.772-18.111,35.96-40.452,23.063" transform="translate(21.142 62.869)" fill="#d1ebff"/>
            <path id="Path_184" data-name="Path 184" d="M97.094,230.935c-22.341-12.9-40.452-44.135-40.452-69.772,0-10.459,3.015-18.364,8.1-23.189-9.989,2.684-16.473,12.533-16.473,27.867,0,25.637,18.109,56.876,40.452,69.773,13.227,7.637,24.968,7.13,32.351.126-6.711,1.8-15,.378-23.978-4.805" transform="translate(23.256 66.476)" fill="#72b5e8"/>
            <g id="Group_51" data-name="Group 51" transform="translate(82.366 192.225)" style="mix-blend-mode: screen;isolation: isolate">
              <g id="Group_50" data-name="Group 50">
                <g id="Group_49" data-name="Group 49" clip-path="url(#clip-path-18)">
                  <path id="Path_185" data-name="Path 185" d="M88.2,136.26c-12.62-7.286-24.087-8.268-32.614-4,7.948-2.224,19.643-1.021,30.326,5.148,26.327,15.2,47.669,52.011,47.669,82.222,0,15.728-7.624,27.007-16.887,31.639,11.64-3.256,19.174-14.834,19.174-32.785,0-30.208-21.342-67.02-47.669-82.221" transform="translate(-55.585 -129.724)" fill="#fff"/>
                </g>
              </g>
            </g>
          </g>
        </g>
      </g>
    </g>
  </g>
</svg>
