<?xml version="1.0" encoding="utf-8"?>
<!-- Generator: Adobe Illustrator 25.0.0, SVG Export Plug-In . SVG Version: 6.00 Build 0)  -->
<svg version="1.1" id="Layer_1" xmlns="http://www.w3.org/2000/svg" xmlns:xlink="http://www.w3.org/1999/xlink" x="0px" y="0px"
	 viewBox="0 0 390 294" style="enable-background:new 0 0 390 294;" xml:space="preserve">
<style type="text/css">
	.st0{enable-background:new    ;}
	.st1{fill:#FFFFFF;}
</style>
<g id="Group_58" transform="translate(-199 -163)">
	<g>
		<g>
			<g id="Group_1" transform="translate(199 163)">
				<g>
					<g class="st0">
						<path class="st1" d="M10.08,70.15c0-27.13,21.06-48.6,47.65-48.6c26.73,0,47.79,21.46,47.79,48.6s-21.06,48.6-47.79,48.6
							C31.13,118.75,10.08,97.29,10.08,70.15z M98.23,70.15c0-23.49-17.82-41.98-40.5-41.98c-22.54,0-40.36,18.49-40.36,41.98
							C17.37,93.5,35.19,112,57.73,112C80.41,112,98.23,93.51,98.23,70.15z"/>
						<path class="st1" d="M121.45,98.64c1.21,0,2.56,0.81,2.97,2.29c0.67,5.67,5.4,11.75,14.31,11.75
							c8.37,0,13.63-6.08,13.63-12.42c0-8.1-5.81-12.01-13.77-14.71c-9.99-3.24-19.44-6.88-19.44-19.71
							c0-10.66,8.1-18.63,19.71-18.63c11.34,0,19.84,7.16,19.84,16.87c0,1.75-1.35,3.11-3.1,3.11c-1.08,0-2.56-0.67-2.97-2.57
							c-0.54-5.8-5.27-11.47-13.77-11.47c-8.64,0-13.23,5.94-13.23,12.69c0,8.78,7.29,11.88,16.47,14.71
							c8.64,2.56,17.01,7.69,17.01,19.57c0,9.85-8.64,18.63-20.38,18.63c-11.47,0-20.38-8.1-20.38-17.01
							C118.34,99.99,119.69,98.64,121.45,98.64z"/>
						<path class="st1" d="M175.18,25.33c0-1.89,1.35-3.38,3.37-3.38c1.89,0,3.38,1.49,3.38,3.38v89.5c0,1.89-1.48,3.51-3.38,3.51
							c-2.02,0-3.37-1.62-3.37-3.51V25.33z M187.6,84.6c-0.54-0.67-0.94-1.75-0.94-2.7c0-0.81,0.4-1.89,0.94-2.56l25.65-30.51
							c0.67-0.67,1.35-1.21,2.43-1.21c1.75,0,3.24,1.35,3.24,3.1c0,0.67-0.27,1.49-0.81,2.16l-24.16,28.75L220,112.68
							c0.54,0.67,0.95,1.48,0.95,2.29c0,1.75-1.75,3.38-3.51,3.38c-0.94,0-1.89-0.41-2.56-1.35L187.6,84.6z"/>
						<path class="st1" d="M232.82,73.8c0-15.52,9.31-26.59,25.24-26.59c1.76,0,3.1,1.35,3.1,3.11c0,1.62-1.48,3.1-3.1,3.1
							c-11.07,0-18.49,7.29-18.49,20.38v41.04c0,1.89-1.48,3.51-3.38,3.51c-2.02,0-3.37-1.62-3.37-3.51L232.82,73.8L232.82,73.8z"/>
					</g>
					<g class="st0">
						<path class="st1" d="M13.32,136.94c0-2.02,1.48-3.51,3.51-3.51h20.38c16.47,0,27,11.34,27,25.65c0,14.17-10.53,25.51-27,25.51
							h-5.8c-1.89,0-3.24-1.49-3.24-3.24c0-1.89,1.35-3.38,3.24-3.38h5.53c12.42,0,19.98-8.37,19.98-18.9
							c0-10.8-7.56-19.17-19.98-19.17h-16.6v85.32c0,1.89-1.48,3.65-3.51,3.65s-3.51-1.75-3.51-3.65
							C13.32,225.22,13.32,136.94,13.32,136.94z"/>
					</g>
					<g class="st0">
						<path class="st1" d="M133.33,213.89c-6.21,9.31-16.74,15.39-28.89,15.39c-19.57,0-34.96-15.79-34.96-35.77
							s15.39-35.77,34.96-35.77c12.15,0,22.68,6.08,28.89,15.39v-11.61c0-1.89,1.48-3.38,3.38-3.38c1.89,0,3.38,1.48,3.38,3.38
							v63.85c0,1.89-1.49,3.51-3.38,3.51s-3.38-1.62-3.38-3.51V213.89z M133.33,194.72v-2.43c-0.67-15.93-12.96-28.35-28.48-28.35
							c-15.93,0-28.62,12.96-28.62,29.56s12.69,29.56,28.62,29.56C120.37,223.07,132.65,210.78,133.33,194.72z"/>
						<path class="st1" d="M166.13,214.02v11.34c0,1.89-1.48,3.51-3.38,3.51c-2.02,0-3.37-1.62-3.37-3.51v-89.5
							c0-1.89,1.35-3.38,3.37-3.38c1.89,0,3.38,1.49,3.38,3.38v37.12c6.21-9.18,16.6-15.25,28.75-15.25
							c19.71,0,35.1,15.79,35.1,35.77s-15.39,35.77-35.1,35.77C182.74,229.28,172.34,223.34,166.13,214.02z M223.1,193.5
							c0-16.6-12.69-29.56-28.48-29.56c-15.52,0-27.94,12.42-28.48,28.35v1.21c0,16.6,12.55,29.56,28.48,29.56
							C210.41,223.07,223.1,210.11,223.1,193.5z"/>
						<path class="st1" d="M242.81,193.5c0-19.98,15.52-35.77,35.37-35.77s35.23,15.79,35.23,35.77s-15.39,35.77-35.23,35.77
							S242.81,213.48,242.81,193.5z M306.67,193.5c0-16.47-12.55-29.56-28.48-29.56c-15.93,0-28.62,13.09-28.62,29.56
							c0,16.33,12.69,29.56,28.62,29.56C294.11,223.07,306.67,209.84,306.67,193.5z"/>
						<path class="st1" d="M329.62,188.64c0-19.84,12.82-30.91,28.89-30.91c16.2,0,28.89,11.07,28.89,30.91v36.72
							c0,1.89-1.48,3.51-3.37,3.51c-1.89,0-3.38-1.62-3.38-3.51v-36.85c0-16.2-9.72-24.57-22.14-24.57
							c-12.28,0-22.14,8.37-22.14,24.57v36.85c0,1.89-1.48,3.51-3.38,3.51c-2.02,0-3.37-1.62-3.37-3.51V188.64z"/>
					</g>
				</g>
			</g>
		</g>
	</g>
	<g id="Group_56" transform="translate(375.394 406.994)">
		<rect id="Rectangle_24" x="3.12" y="2.98" width="204" height="37"/>
		<g class="st0">
			<path class="st1" d="M29.32,21.6v-7.32c0-0.82,0.68-1.5,1.5-1.5s1.5,0.68,1.5,1.5v7.52c0,1.72,1.06,2.58,2.38,2.58
				c1.36,0,2.42-0.86,2.42-2.58v-7.52c0-0.82,0.68-1.5,1.5-1.5s1.5,0.68,1.5,1.5v7.32c0,3.4-2.38,5.58-5.42,5.58
				C31.7,27.18,29.32,25,29.32,21.6z"/>
			<path class="st1" d="M42.52,14.28c0-0.82,0.68-1.5,1.5-1.5s1.5,0.68,1.5,1.5v11.4c0,0.82-0.68,1.5-1.5,1.5s-1.5-0.68-1.5-1.5
				V14.28z"/>
			<path class="st1" d="M59.4,11.84c0.28-0.32,0.7-0.52,1.1-0.52c0.74,0,1.38,0.66,1.38,1.44c0,0.3-0.1,0.58-0.32,0.88L49.4,28.14
				c-0.28,0.32-0.7,0.5-1.1,0.5c-0.74,0-1.38-0.64-1.38-1.42c0-0.28,0.1-0.58,0.32-0.88L59.4,11.84z"/>
		</g>
		<g class="st0">
			<path class="st1" d="M63.28,21.6v-7.32c0-0.82,0.68-1.5,1.5-1.5s1.5,0.68,1.5,1.5v7.52c0,1.72,1.06,2.58,2.38,2.58
				c1.36,0,2.42-0.86,2.42-2.58v-7.52c0-0.82,0.68-1.5,1.5-1.5s1.5,0.68,1.5,1.5v7.32c0,3.4-2.38,5.58-5.42,5.58
				C65.66,27.18,63.28,25,63.28,21.6z"/>
		</g>
		<g class="st0">
			<path class="st1" d="M81.92,22.2l-3.68,4.38c-0.3,0.36-0.7,0.6-1.2,0.6c-0.78,0-1.4-0.62-1.4-1.4c0-0.34,0.08-0.62,0.32-0.9
				l4.1-4.88l-3.98-4.76c-0.26-0.32-0.34-0.64-0.34-0.98c0-0.84,0.66-1.48,1.48-1.48c0.44,0,0.86,0.18,1.16,0.54l3.64,4.36l3.7-4.4
				c0.26-0.32,0.7-0.5,1.08-0.5c0.8,0,1.4,0.64,1.4,1.4c0,0.36-0.1,0.64-0.32,0.9l-4.02,4.8l4.08,4.84
				c0.26,0.32,0.34,0.64,0.34,0.98c0,0.84-0.66,1.48-1.48,1.48c-0.44,0-0.86-0.18-1.16-0.54L81.92,22.2z"/>
			<path class="st1" d="M94.98,14.48c0-0.82,0.68-1.5,1.5-1.5h3.44c4.32,0,7.22,3.1,7.22,7s-2.9,7-7.22,7h-3.44
				c-0.82,0-1.5-0.68-1.5-1.5V14.48z M99.92,24.18c2.58,0,4.12-1.86,4.12-4.2s-1.54-4.2-4.12-4.2h-1.94v8.4H99.92z"/>
			<path class="st1" d="M109.14,14.48c0-0.82,0.68-1.5,1.5-1.5h5.12c0.78,0,1.4,0.62,1.4,1.4s-0.62,1.4-1.4,1.4h-3.62v2.8h3.62
				c0.78,0,1.4,0.62,1.4,1.4c0,0.78-0.62,1.4-1.4,1.4h-3.62v2.8h3.62c0.78,0,1.4,0.62,1.4,1.4s-0.62,1.4-1.4,1.4h-5.12
				c-0.82,0-1.5-0.68-1.5-1.5V14.48z"/>
			<path class="st1" d="M118.76,23.98c0-0.82,0.68-1.5,1.5-1.5c0.6,0,0.96,0.32,1.22,0.68c0.4,0.54,0.7,1.22,1.78,1.22
				c0.9,0,1.6-0.7,1.6-1.6c0-0.94-0.84-1.26-1.88-1.6l-1.02-0.34c-1.52-0.5-3.1-1.44-3.1-4.08c0-2.26,1.94-3.98,4.4-3.98
				c2.64,0,4.28,1.92,4.28,2.98c0,0.82-0.68,1.5-1.5,1.5c-0.58,0-0.88-0.28-1.16-0.62c-0.38-0.48-0.7-1.06-1.62-1.06
				c-0.78,0-1.4,0.62-1.4,1.38c0,0.82,0.76,1.22,1.58,1.48l0.86,0.28c1.68,0.54,3.56,1.36,3.56,4.26c0,2.4-2.02,4.2-4.6,4.2
				C120.64,27.18,118.76,25.22,118.76,23.98z"/>
			<path class="st1" d="M129.86,14.28c0-0.82,0.68-1.5,1.5-1.5s1.5,0.68,1.5,1.5v11.4c0,0.82-0.68,1.5-1.5,1.5s-1.5-0.68-1.5-1.5
				V14.28z"/>
			<path class="st1" d="M134.86,19.98c0-4.02,3.18-7.2,7.22-7.2c2.1,0,3.92,0.86,5.14,2.12c0.26,0.28,0.4,0.68,0.4,1.02
				c0,0.82-0.68,1.48-1.5,1.48c-0.4,0-0.82-0.22-1.2-0.58c-0.74-0.68-1.68-1.14-2.84-1.14c-2.3,0-4.12,1.9-4.12,4.3
				s1.82,4.3,4.12,4.3c1.52,0,3.02-0.84,3.76-2.5H143c-0.78,0-1.4-0.62-1.4-1.4s0.62-1.4,1.4-1.4h4.84c0.78,0,1.4,0.62,1.38,1.5
				c-0.08,3.18-3,6.7-7.14,6.7C138.04,27.18,134.86,24,134.86,19.98z"/>
			<path class="st1" d="M151.04,14.36c0-0.88,0.68-1.58,1.56-1.58c0.5,0,0.96,0.24,1.2,0.54l5.54,6.62v-5.66
				c0-0.82,0.68-1.5,1.5-1.5s1.5,0.68,1.5,1.5v11.4c0,0.82-0.68,1.5-1.5,1.5s-1.5-0.68-1.5-1.5V24.6l-5.3-6.32v7.4
				c0,0.82-0.68,1.5-1.5,1.5s-1.5-0.68-1.5-1.5L151.04,14.36L151.04,14.36z"/>
			<path class="st1" d="M165.04,14.48c0-0.82,0.68-1.5,1.5-1.5h5.12c0.78,0,1.4,0.62,1.4,1.4s-0.62,1.4-1.4,1.4h-3.62v2.8h3.62
				c0.78,0,1.4,0.62,1.4,1.4c0,0.78-0.62,1.4-1.4,1.4h-3.62v2.8h3.62c0.78,0,1.4,0.62,1.4,1.4s-0.62,1.4-1.4,1.4h-5.12
				c-0.82,0-1.5-0.68-1.5-1.5V14.48z"/>
			<path class="st1" d="M175.06,14.48c0-0.82,0.68-1.5,1.5-1.5h3.56c2.72,0,4.6,1.98,4.6,4.4c0,1.9-1.1,3.14-2.2,3.58l-0.1,0.04
				l3.12,3.72c0.26,0.32,0.34,0.64,0.34,0.98c0,0.84-0.66,1.48-1.48,1.48c-0.44,0-0.86-0.18-1.16-0.54l-4.32-5.14
				c-0.22-0.26-0.46-0.64-0.46-1.16c0-0.76,0.6-1.36,1.34-1.36h0.22c0.88,0,1.6-0.72,1.6-1.6c0-0.88-0.72-1.6-1.6-1.6h-1.96v9.9
				c0,0.82-0.68,1.5-1.5,1.5s-1.5-0.68-1.5-1.5L175.06,14.48L175.06,14.48z"/>
		</g>
	</g>
</g>
</svg>
