<?xml version="1.0" encoding="utf-8"?>
<!-- Generator: Adobe Illustrator 25.1.0, SVG Export Plug-In . SVG Version: 6.00 Build 0)  -->
<svg version="1.1" id="Layer_1" xmlns="http://www.w3.org/2000/svg" xmlns:xlink="http://www.w3.org/1999/xlink" x="0px" y="0px"
	 viewBox="0 0 324 181" style="enable-background:new 0 0 324 181;" xml:space="preserve">
<style type="text/css">
	.st0{fill:#FFFFFF;}
</style>
<g>
	<path class="st0" d="M4.21,48.56c0-22.39,17.33-40.09,39.34-40.09c22.01,0,39.34,17.71,39.34,40.09S65.56,88.66,43.55,88.66
		C21.54,88.66,4.21,70.95,4.21,48.56z M66,48.56c0-13.36-9.92-23.95-22.45-23.95S21.1,35.2,21.1,48.56s9.92,23.95,22.45,23.95
		S66,61.93,66,48.56z"/>
	<path class="st0" d="M98.69,68.5c1.96,0,3.38,0.67,4.58,1.67c2.29,1.89,3.92,4.57,7.41,4.57c2.07,0,3.81-1.78,3.81-3.9
		c0-3.56-3.81-4.68-8.28-6.24c-6.32-2.23-14.06-5.23-14.06-17.26c0-9.69,8.06-17.71,18.52-17.71c9.26,0,18.52,5.46,18.52,11.92
		c0,4.01-3.16,7.24-7.08,7.24c-1.31,0-2.29-0.33-3.27-0.78c-2.83-1.45-4.79-4.46-8.17-4.46c-2.07,0-3.81,1.78-3.81,3.9
		c0,3.12,3.92,4.12,8.5,5.68c6.54,2.12,14.38,5.35,14.38,17.15c0,10.02-8.39,18.38-19.07,18.38c-9.92,0-19.07-6.24-19.07-12.92
		C91.6,71.73,94.76,68.5,98.69,68.5z"/>
	<path class="st0" d="M140.64,16.27c0-4.34,3.38-7.8,7.63-7.8s7.63,3.45,7.63,7.8v64.6c0,4.34-3.38,7.8-7.63,7.8
		s-7.63-3.45-7.63-7.8V16.27z M160.14,64.82c-1.2-1.45-2.07-3.45-2.07-5.68c0-1.67,0.76-3.9,1.96-5.35l17.76-21.61
		c1.53-1.78,3.16-2.56,5.23-2.56c4.14,0,7.3,3.01,7.3,7.13c0,1.67-0.44,3.23-1.63,4.68l-13.95,16.93l14.38,17.49
		c1.2,1.45,1.85,3.34,1.85,5.01c0,4.46-3.7,7.8-7.74,7.8c-2.07,0-4.36-1-5.77-2.78L160.14,64.82z"/>
	<path class="st0" d="M198.61,57.81c0-17.26,11.77-28.18,26.48-28.18c3.92,0,7.08,3.23,7.08,7.24c0,4.01-3.16,7.24-7.08,7.24
		c-6.21,0-11.22,4.46-11.22,13.7v23.05c0,4.34-3.38,7.8-7.63,7.8c-4.25,0-7.63-3.45-7.63-7.8V57.81z"/>
	<path class="st0" d="M6.39,101.91c0-4.57,3.71-8.35,8.17-8.35h18.31c14.82,0,25.06,11.03,25.06,24.5c0,13.48-10.24,24.5-25.06,24.5
		h-0.33c-4.25,0-7.63-3.45-7.63-7.8s3.38-7.8,7.63-7.8c4.69-0.11,8.5-4.01,8.5-8.91s-3.92-8.91-8.72-8.91h-9.59v55.13
		c0,4.57-3.71,8.35-8.17,8.35s-8.17-3.79-8.17-8.35V101.91z"/>
	<path class="st0" d="M62.29,143.11c0-16.48,11.55-29.51,26.91-29.51c5.99,0,11.55,2.12,16.02,5.57c0.98-3.23,3.92-5.57,7.41-5.57
		c4.25,0,7.63,3.45,7.63,7.8v43.44c0,4.34-3.38,7.8-7.63,7.8c-3.49,0-6.43-2.34-7.41-5.57c-4.47,3.56-10.02,5.57-16.02,5.57
		C73.84,172.63,62.29,159.6,62.29,143.11z M105.01,143.11c0-8.58-5.99-15.04-13.62-15.04c-7.74,0-13.73,6.46-13.73,15.04
		c0,8.69,5.99,15.04,13.73,15.04C99.01,158.15,105.01,151.8,105.01,143.11z"/>
	<path class="st0" d="M148.27,167.06c-0.87,3.23-3.81,5.57-7.3,5.57c-4.25,0-7.63-3.45-7.63-7.8v-64.6c0-4.34,3.38-7.8,7.63-7.8
		s7.63,3.45,7.63,7.8v18.71c4.36-3.34,9.81-5.35,15.8-5.35c15.36,0,26.91,13.03,26.91,29.51s-11.55,29.51-26.91,29.51
		C158.29,172.63,152.73,170.62,148.27,167.06z M175.94,143.11c0-8.58-5.99-15.04-13.73-15.04c-7.52,0-13.4,6.24-13.62,14.48v1.23
		c0.22,8.35,6.1,14.37,13.62,14.37C169.95,158.15,175.94,151.8,175.94,143.11z"/>
	<path class="st0" d="M200.03,143.11c0-16.48,12.2-29.51,29.09-29.51c16.89,0,29.09,13.03,29.09,29.51s-12.2,29.51-29.09,29.51
		C212.23,172.63,200.03,159.6,200.03,143.11z M242.74,143.11c0-8.13-5.67-15.04-13.62-15.04s-13.73,6.91-13.73,15.04
		c0,8.13,5.78,15.04,13.73,15.04S242.74,151.25,242.74,143.11z M229.45,88.99c1.53-1.78,3.6-2.67,5.67-2.67
		c3.92,0,7.52,3.34,7.52,7.57c0,1.67-0.65,3.34-1.74,4.68l-7.95,9.8c-1.42,1.67-3.49,2.67-5.56,2.67c-3.81,0-7.63-3.34-7.63-7.57
		c0-1.67,0.65-3.23,1.74-4.68L229.45,88.99z"/>
	<path class="st0" d="M269.11,139.77c0-15.7,11.01-26.17,25.06-26.17c14.06,0,25.06,10.47,25.06,26.17v25.06
		c0,4.34-3.38,7.8-7.63,7.8c-4.25,0-7.63-3.45-7.63-7.8v-25.62c0-7.24-4.36-11.14-9.81-11.14s-9.81,3.9-9.81,11.14v25.62
		c0,4.34-3.38,7.8-7.63,7.8c-4.25,0-7.63-3.45-7.63-7.8V139.77z"/>
</g>
</svg>
