<?xml version="1.0" encoding="utf-8"?>
<!-- Generator: Adobe Illustrator 25.0.0, SVG Export Plug-In . SVG Version: 6.00 Build 0)  -->
<svg version="1.1" id="Layer_1" xmlns="http://www.w3.org/2000/svg" xmlns:xlink="http://www.w3.org/1999/xlink" x="0px" y="0px"
	 viewBox="0 0 304 197" style="enable-background:new 0 0 304 197;" xml:space="preserve">
<style type="text/css">
	.st0{fill:#FFFFFF;}
</style>
<g>
	<g>
		<path class="st0" d="M17.62,54.43V37.08c0-11.41,6.1-19.33,18.78-19.33h20.84c12.68,0,18.78,7.92,18.78,19.33v17.35
			c0,11.33-6.1,19.25-18.78,19.25H36.4C23.72,73.69,17.62,65.76,17.62,54.43z M57.24,60.22c2.77,0,4.68-0.55,4.68-5.31V36.6
			c0-4.83-1.66-5.39-4.68-5.39H36.4c-3.01,0-4.67,0.55-4.67,5.39v18.3c0,4.75,1.9,5.31,4.67,5.31H57.24z"/>
		<path class="st0" d="M84.1,71.31V63.7c0-1.51,0.87-2.38,2.38-2.38h20.92c1.74,0,3.09-0.4,3.09-2.06c0-1.58-0.95-1.98-3.01-2.22
			L96.31,55.7c-9.75-1.19-13.15-4.91-13.15-13.47c0-9.03,5.31-13.07,15.93-13.07h20.52c1.51,0,2.38,0.87,2.38,2.38v7.61
			c0,1.51-0.87,2.38-2.38,2.38H99.4c-1.58,0-3.01,0.24-3.01,2.14c0,1.66,0.95,2.06,2.54,2.22l10.86,1.35
			c10.86,1.35,14.18,5.39,14.18,13.63c0,9.27-5.23,12.84-16.64,12.84H86.48C84.98,73.69,84.1,72.81,84.1,71.31z"/>
		<path class="st0" d="M130.54,71.31V15.92c0-1.51,0.87-2.38,2.38-2.38h8.64c1.51,0,2.38,0.87,2.38,2.38v30.19h5.94l10.38-15.45
			c0.71-1.11,1.58-1.51,2.85-1.51h10.14c1.98,0,2.61,1.27,1.51,2.85l-13.63,19.33l13.63,19.49c1.11,1.58,0.4,2.85-1.51,2.85H163.1
			c-1.27,0-2.14-0.4-2.85-1.51l-10.38-15.13h-5.94v14.26c0,1.51-0.87,2.38-2.38,2.38h-8.64C131.41,73.69,130.54,72.81,130.54,71.31z
			"/>
		<path class="st0" d="M210.01,29.15c1.51,0,2.38,0.87,2.38,2.38v7.61c0,1.51-0.87,2.38-2.38,2.38h-11.96
			c-2.3,0-3.41,0.71-3.41,3.72v26.07c0,1.51-0.87,2.38-2.38,2.38h-8.56c-1.51,0-2.38-0.87-2.38-2.38V31.53
			c0-1.51,0.87-2.38,2.38-2.38h8.56c1.51,0,2.38,0.79,2.38,2.3v2.38c1.98-3.01,5.31-4.67,10.54-4.67H210.01z"/>
		<path class="st0" d="M18.65,137.87V86.68c0-1.51,0.87-2.38,2.38-2.38h28.84c15.69,0,21.79,7.45,21.79,21v2.3
			c0,13.55-6.1,20.68-21.79,20.68H32.76v9.59c0,1.51-0.87,2.38-2.38,2.38h-9.35C19.52,140.25,18.65,139.38,18.65,137.87z
			 M48.6,114.97c5.55,0,8.95-0.79,8.95-7.53v-2.06c0-6.74-3.17-7.61-8.95-7.61H32.76v17.19H48.6z"/>
		<path class="st0" d="M77.21,127.41c0-9.51,3.41-12.44,14.18-13.47l13.87-1.35c1.9-0.16,2.54-1.11,2.54-2.46
			c0-1.51-1.43-2.06-3.01-2.06H83.15c-1.51,0-2.38-0.87-2.38-2.38v-7.61c0-1.51,0.87-2.38,2.38-2.38h21.95
			c11.41,0,15.93,4.04,15.93,13.07v29.08c0,1.51-0.87,2.38-2.38,2.38h-8.56c-1.51,0-2.38-0.87-2.38-2.3v-2.3
			c-1.98,2.93-5.31,4.6-10.54,4.6h-3.33C83.23,140.25,77.21,136.68,77.21,127.41z M104.31,128.36c2.3,0,3.41-0.63,3.41-3.49v-3.17
			l-14.02,1.27c-2.06,0.16-3.01,1.03-3.01,3.01c0,1.74,1.35,2.38,3.09,2.38H104.31z"/>
		<path class="st0" d="M175.47,113.31v9.59c0,10.54-4.12,17.35-16.4,17.35h-5.71c-5.23,0-8.56-1.66-10.54-4.6v2.22
			c0,1.51-0.87,2.38-2.38,2.38h-8.56c-1.51,0-2.38-0.87-2.38-2.38V82.48c0-1.51,0.87-2.38,2.38-2.38h8.56
			c1.51,0,2.38,0.87,2.38,2.38v17.83c1.98-2.93,5.31-4.6,10.54-4.6h5.71C171.35,95.72,175.47,102.45,175.47,113.31z M162.15,111.8
			c0-3.01-1.11-3.72-3.41-3.72h-12.52c-2.3,0-3.41,0.71-3.41,3.72v12.36c0,3.01,1.03,3.72,3.41,3.72h12.52
			c2.38,0,3.41-0.71,3.41-3.72V111.8z"/>
		<path class="st0" d="M182.6,122.66v-9.59c0-10.54,4.12-17.35,16.4-17.35h13.15c12.28,0,16.4,6.81,16.4,17.35v9.59
			c0,10.86-4.12,17.59-16.4,17.59H199C186.72,140.25,182.6,133.51,182.6,122.66z M211.84,127.89c2.3,0,3.41-0.71,3.41-3.72V111.8
			c0-3.01-1.03-3.72-3.41-3.72h-12.52c-2.38,0-3.41,0.71-3.41,3.72v12.36c0,3.01,1.11,3.72,3.41,3.72H211.84z"/>
		<path class="st0" d="M281.01,113.31v24.56c0,1.51-0.87,2.38-2.38,2.38h-8.56c-1.51,0-2.38-0.87-2.38-2.38V111.8
			c0-3.01-1.11-3.72-3.41-3.72h-10.93c-2.3,0-3.41,0.71-3.41,3.72v26.07c0,1.51-0.87,2.38-2.38,2.38h-8.56
			c-1.51,0-2.38-0.87-2.38-2.38V98.09c0-1.51,0.87-2.38,2.38-2.38h8.56c1.51,0,2.38,0.79,2.38,2.3v2.38
			c1.98-3.01,5.31-4.67,10.54-4.67h4.12C276.89,95.72,281.01,102.45,281.01,113.31z"/>
	</g>
	<g>
		<path class="st0" d="M96.68,167l2.11-9.97c0.04-0.2,0.18-0.29,0.38-0.29h0.71c0.22,0,0.35,0.11,0.31,0.35l-2.1,9.93
			c-0.62,3.01,0.15,3.99,2.99,3.99h4.63c2.84,0,4.05-0.97,4.68-3.99l2.11-9.99c0.04-0.2,0.18-0.29,0.38-0.29h0.73
			c0.22,0,0.35,0.11,0.31,0.35l-2.11,9.9c-0.75,3.55-2.24,5.38-6.16,5.38h-4.61C97.1,172.39,95.93,170.55,96.68,167z"/>
		<path class="st0" d="M113.59,172.03l3.19-15c0.04-0.2,0.18-0.29,0.38-0.29h0.71c0.22,0,0.35,0.11,0.31,0.35l-3.19,15
			c-0.04,0.2-0.18,0.29-0.38,0.29h-0.71C113.67,172.39,113.54,172.28,113.59,172.03z"/>
		<path class="st0" d="M116.73,171.99l7.18-15c0.07-0.16,0.2-0.24,0.38-0.24h0.78c0.24,0,0.38,0.15,0.27,0.4l-7.18,15
			c-0.07,0.15-0.2,0.24-0.38,0.24H117C116.75,172.39,116.62,172.23,116.73,171.99z"/>
		<path class="st0" d="M125.15,167l2.1-9.97c0.04-0.2,0.18-0.29,0.38-0.29h0.71c0.22,0,0.35,0.11,0.31,0.35l-2.11,9.93
			c-0.62,3.01,0.16,3.99,2.99,3.99h4.63c2.84,0,4.06-0.97,4.68-3.99l2.11-9.99c0.04-0.2,0.18-0.29,0.38-0.29h0.73
			c0.22,0,0.35,0.11,0.31,0.35l-2.11,9.9c-0.75,3.55-2.24,5.38-6.16,5.38h-4.61C125.57,172.39,124.4,170.55,125.15,167z"/>
		<path class="st0" d="M140.71,171.99l8.4-7.84l-4.52-7c-0.13-0.22-0.04-0.4,0.22-0.4h0.91c0.18,0,0.31,0.07,0.4,0.22l4.03,6.18
			l6.67-6.25c0.11-0.11,0.27-0.15,0.42-0.15h1.13c0.29,0,0.38,0.18,0.15,0.4l-7.67,7.16l4.99,7.69c0.13,0.22,0.04,0.4-0.22,0.4
			h-0.91c-0.18,0-0.31-0.07-0.4-0.22l-4.48-6.85l-7.4,6.91c-0.11,0.11-0.27,0.15-0.42,0.15h-1.15
			C140.57,172.39,140.49,172.21,140.71,171.99z"/>
		<path class="st0" d="M162.8,172.03l3.19-15c0.04-0.2,0.18-0.29,0.38-0.29h9.42c3.88,0,5.1,1.71,4.21,5.87l-0.84,3.99
			c-0.91,4.14-2.35,5.78-6.23,5.78h-9.82C162.89,172.39,162.75,172.28,162.8,172.03z M172.88,171.01c3.01,0,4.12-0.95,4.87-4.41
			l0.84-3.99c0.73-3.5,0.02-4.5-2.97-4.5h-8.44l-2.75,12.9H172.88z"/>
		<path class="st0" d="M180.48,172.03l3.19-15c0.04-0.2,0.18-0.29,0.38-0.29h12.54c0.22,0,0.35,0.11,0.31,0.35l-0.16,0.73
			c-0.04,0.18-0.18,0.29-0.38,0.29h-11.5l-1.2,5.56h8.07c0.22,0,0.33,0.11,0.29,0.35l-0.13,0.71c-0.04,0.2-0.18,0.29-0.38,0.29
			h-8.13l-1.26,5.98h11.43c0.22,0,0.35,0.11,0.31,0.35l-0.16,0.73c-0.04,0.18-0.18,0.29-0.38,0.29h-12.54
			C180.57,172.39,180.43,172.28,180.48,172.03z"/>
		<path class="st0" d="M195.79,167.42c0.04-0.22,0.18-0.31,0.38-0.31h0.73c0.22,0,0.35,0.13,0.31,0.38
			c-0.51,2.7,0.22,3.52,3.08,3.52h4.12c3.06,0,4.17-0.69,4.65-2.92c0.44-2.08-0.4-2.46-2.93-2.68l-4.63-0.38
			c-3.37-0.29-4.85-1.18-4.25-4.06c0.62-2.95,2.02-4.23,6.14-4.23h3.79c3.86,0,5.07,1.44,4.43,4.96c-0.04,0.2-0.18,0.31-0.38,0.31
			h-0.73c-0.22,0-0.35-0.13-0.31-0.38c0.51-2.7-0.22-3.52-3.08-3.52h-3.79c-3.08,0-4.17,0.66-4.68,2.9
			c-0.42,2.08,0.38,2.42,3.06,2.66l4.63,0.38c3.32,0.29,4.74,1.2,4.12,4.05c-0.62,2.95-1.99,4.28-6.12,4.28h-4.12
			C196.37,172.39,195.13,170.95,195.79,167.42z"/>
		<path class="st0" d="M211.88,172.03l3.19-15c0.04-0.2,0.18-0.29,0.38-0.29h0.71c0.22,0,0.35,0.11,0.31,0.35l-3.19,15
			c-0.04,0.2-0.18,0.29-0.38,0.29h-0.71C211.97,172.39,211.83,172.28,211.88,172.03z"/>
		<path class="st0" d="M216.68,167l1.02-4.85c0.75-3.57,2.26-5.41,6.18-5.41h4.99c3.79,0,5.05,1.62,4.43,4.96
			c-0.04,0.22-0.18,0.31-0.38,0.31h-0.73c-0.22,0-0.35-0.13-0.31-0.38c0.51-2.68-0.33-3.52-3.08-3.52h-4.99
			c-2.86,0-4.03,0.98-4.7,4.01l-1.04,4.9c-0.62,3.01,0.16,3.99,2.99,3.99h4.99c2.86,0,4.06-0.97,4.7-3.99l0.22-1.06h-5.67
			c-0.22,0-0.33-0.11-0.29-0.35l0.13-0.66c0.04-0.2,0.18-0.29,0.38-0.29h6.76c0.22,0,0.35,0.11,0.31,0.35l-0.42,1.99
			c-0.78,3.55-2.28,5.38-6.18,5.38h-4.99C217.11,172.39,215.93,170.55,216.68,167z"/>
		<path class="st0" d="M233.59,172.03l3.19-15c0.04-0.2,0.18-0.29,0.38-0.29H238c0.18,0,0.31,0.07,0.4,0.22l8.53,13.58l2.86-13.52
			c0.04-0.2,0.18-0.29,0.38-0.29h0.73c0.22,0,0.35,0.11,0.31,0.35l-3.19,15c-0.04,0.2-0.18,0.29-0.38,0.29h-0.91
			c-0.18,0-0.31-0.07-0.4-0.22l-8.49-13.54l-2.86,13.47c-0.04,0.2-0.18,0.29-0.38,0.29h-0.71
			C233.68,172.39,233.55,172.28,233.59,172.03z"/>
		<path class="st0" d="M250.81,172.03l3.19-15c0.04-0.2,0.18-0.29,0.38-0.29h12.54c0.22,0,0.35,0.11,0.31,0.35l-0.16,0.73
			c-0.04,0.18-0.18,0.29-0.38,0.29h-11.5l-1.2,5.56h8.07c0.22,0,0.33,0.11,0.29,0.35l-0.13,0.71c-0.04,0.2-0.18,0.29-0.38,0.29
			h-8.13l-1.26,5.98h11.43c0.22,0,0.35,0.11,0.31,0.35l-0.15,0.73c-0.04,0.18-0.18,0.29-0.38,0.29h-12.54
			C250.9,172.39,250.76,172.28,250.81,172.03z"/>
		<path class="st0" d="M282.91,161.93l-0.07,0.24c-0.64,3.01-1.73,4.56-4.85,4.99l2.35,4.83c0.11,0.24,0,0.4-0.24,0.4h-0.91
			c-0.18,0-0.29-0.09-0.38-0.24l-2.37-4.87h-7.76l-1.04,4.83c-0.04,0.18-0.18,0.29-0.38,0.29h-0.71c-0.22,0-0.35-0.11-0.31-0.35
			l3.19-15c0.04-0.2,0.18-0.29,0.38-0.29h7.82C282.4,156.74,283.71,158.29,282.91,161.93z M277.53,158.12h-6.89l-1.66,7.78h6.89
			c3.74,0,4.9-0.71,5.58-3.72l0.04-0.24C282.18,158.89,281.25,158.12,277.53,158.12z"/>
	</g>
</g>
</svg>
